<svg width="35" height="35" viewBox="0 0 35 35" fill="none" xmlns="http://www.w3.org/2000/svg">
<circle cx="17.5" cy="17.5" r="17" fill="white" stroke="black"/>
<path d="M18.8125 7.5863C18.8125 7.5863 19.46 9.90505 19.46 11.7863C19.46 13.5888 18.2787 15.0501 16.4762 15.0501C14.665 15.0501 13.3 13.5888 13.3 11.7863L13.3262 11.4713C11.5587 13.5713 10.5 16.2926 10.5 19.2501C10.5 23.1176 13.6325 26.2501 17.5 26.2501C21.3675 26.2501 24.5 23.1176 24.5 19.2501C24.5 14.5338 22.2337 10.3251 18.8125 7.5863ZM17.2462 23.6251C15.6887 23.6251 14.4287 22.4001 14.4287 20.8776C14.4287 19.4601 15.3475 18.4626 16.8875 18.1476C18.4362 17.8326 20.0375 17.0888 20.93 15.8901C21.2712 17.0188 21.4462 18.2088 21.4462 19.4251C21.4462 21.7438 19.565 23.6251 17.2462 23.6251Z" fill="black"/>
</svg>
