<svg width="20" height="21" viewBox="0 0 20 21" fill="none" xmlns="http://www.w3.org/2000/svg">
<circle cx="10" cy="10.5" r="9.5" fill="white" stroke="black"/>
<path d="M10.75 4.83496C10.75 4.83496 11.12 6.15996 11.12 7.23496C11.12 8.26496 10.445 9.09996 9.415 9.09996C8.38 9.09996 7.6 8.26496 7.6 7.23496L7.615 7.05496C6.605 8.25496 6 9.80996 6 11.5C6 13.71 7.79 15.5 10 15.5C12.21 15.5 14 13.71 14 11.5C14 8.80496 12.705 6.39996 10.75 4.83496ZM9.855 14C8.965 14 8.245 13.3 8.245 12.43C8.245 11.62 8.77 11.05 9.65 10.87C10.535 10.69 11.45 10.265 11.96 9.57996C12.155 10.225 12.255 10.905 12.255 11.6C12.255 12.925 11.18 14 9.855 14Z" fill="black"/>
</svg>
