<svg width="35" height="35" viewBox="0 0 35 35" fill="none" xmlns="http://www.w3.org/2000/svg">
<circle cx="17.5" cy="17.5" r="17" fill="white" stroke="black"/>
<path d="M21.2394 11.5481C20.8393 11.0213 20.0471 11.0213 19.6469 11.5481L17.0249 14.9992C16.7533 15.3568 16.7533 15.8516 17.0249 16.2091L18.9 18.6771C19.237 19.1208 19.1465 19.7543 18.6988 20.0858L18.6512 20.121C18.2114 20.4466 17.5922 20.359 17.261 19.9234C16.1603 18.4759 14.8294 16.7234 13.9997 15.6306C13.5995 15.1036 12.8082 15.105 12.4079 15.6319L8.21935 21.145C7.71911 21.8035 8.1887 22.75 9.01561 22.75H27.7344C28.5613 22.75 29.0309 21.8035 28.5307 21.145L21.2394 11.5481Z" fill="black"/>
</svg>
