<svg width="20" height="21" viewBox="0 0 20 21" fill="none" xmlns="http://www.w3.org/2000/svg">
<circle cx="10" cy="10.5" r="9.5" fill="white" stroke="black"/>
<path d="M12.4781 7.54807C12.0779 7.02134 11.2857 7.02134 10.8856 7.54807L9.92552 8.81171C9.65386 9.16927 9.65386 9.66406 9.92552 10.0216L10.7896 11.159C10.9879 11.42 10.9347 11.7927 10.6712 11.9878C10.4125 12.1794 10.0482 12.1278 9.8533 11.8715C9.36193 11.2253 8.79192 10.4749 8.34133 9.88155C7.94115 9.3546 7.14912 9.355 6.74884 9.88187L5.21935 11.895C4.71911 12.5535 5.1887 13.5 6.01561 13.5H14.9844C15.8113 13.5 16.2809 12.5535 15.7807 11.895L12.4781 7.54807Z" fill="black"/>
</svg>
