<svg width="35" height="35" viewBox="0 0 35 35" fill="none" xmlns="http://www.w3.org/2000/svg">
<circle cx="17.5" cy="17.5" r="17" fill="white" stroke="black"/>
<path d="M14.0722 20.165C14.2521 20.165 14.4321 20.159 14.612 20.147L15.5838 20.0809C16.7415 21.5707 17.3773 23.4208 17.3773 25.3129V26.208V26.25H18.3671V26.208V25.3129V23.7872C18.3671 22.8741 18.655 21.9851 19.1889 21.2463L20.3106 21.3184C20.5145 21.3304 20.7185 21.3364 20.9164 21.3364C23.1959 21.3364 25.2653 20.4654 26.741 18.8856C28.2346 17.2878 28.9664 15.1253 28.8164 12.7946L28.6725 10.5901L27.9767 11.0106C27.1669 11.4971 26.0511 11.6113 24.8634 11.7374C21.9062 12.0438 18.2171 12.4282 18.3731 19.3661L18.4511 20.5675C18.1511 20.97 17.9052 21.4085 17.7313 21.877C17.3893 20.994 16.9155 20.159 16.3216 19.4022L16.3936 18.339C16.5196 12.1699 13.2324 11.8275 10.5871 11.5512C9.54334 11.4431 8.55959 11.341 7.85177 10.9205L7.15595 10.5L7.01798 12.5423C6.88002 14.6207 7.53985 16.5549 8.86551 17.9785C10.1852 19.3902 12.0327 20.165 14.0722 20.165ZM24.9654 12.7406C25.9312 12.6384 26.9209 12.5363 27.7847 12.212L27.8267 12.8727C27.9647 14.9271 27.3228 16.8252 26.0211 18.2188C24.7375 19.5944 22.9259 20.3513 20.9164 20.3513C20.7365 20.3513 20.5565 20.3453 20.3766 20.3332L20.0827 20.3152L24.8694 15.5157L24.1676 14.8129L19.3748 19.6124L19.3568 19.3361C19.2309 13.3352 22.0142 13.0469 24.9654 12.7406ZM8.00773 12.6084L8.04372 12.0978C8.79353 12.3681 9.65131 12.4522 10.4851 12.5423C13.0704 12.8126 15.5118 13.0649 15.3979 18.3089L15.3859 18.4471L11.2349 14.2843L10.5331 14.9871L14.69 19.1499L14.5521 19.1619C12.5906 19.2941 10.827 18.6213 9.59732 17.3058C8.45162 16.0804 7.88776 14.4105 8.00773 12.6084Z" fill="black"/>
</svg>
