<svg width="20" height="21" viewBox="0 0 20 21" fill="none" xmlns="http://www.w3.org/2000/svg">
<circle cx="10" cy="10.5" r="9.5" fill="white" stroke="black"/>
<path d="M8.04125 12.0229C8.14408 12.0229 8.24691 12.0195 8.34974 12.0126L8.90503 11.9748C9.56658 12.8261 9.92991 13.8833 9.92991 14.9645V15.476V15.5H10.4955V15.476V14.9645V14.0927C10.4955 13.5709 10.66 13.0629 10.9651 12.6407L11.6061 12.6819C11.7226 12.6888 11.8391 12.6922 11.9523 12.6922C13.2548 12.6922 14.4373 12.1945 15.2806 11.2918C16.134 10.3787 16.5522 9.14302 16.4665 7.81121L16.3843 6.55149L15.9867 6.79176C15.5239 7.06979 14.8864 7.13501 14.2077 7.20709C12.5178 7.38215 10.4098 7.60183 10.4989 11.5664L10.5435 12.2529C10.3721 12.4828 10.2315 12.7334 10.1321 13.0011C9.93677 12.4966 9.66598 12.0195 9.32664 11.587L9.36777 10.9794C9.43975 7.45423 7.56137 7.25858 6.04976 7.10069C5.45334 7.0389 4.89119 6.98055 4.48672 6.74027L4.08911 6.5L4.01027 7.66705C3.93144 8.85469 4.30848 9.95995 5.06601 10.7735C5.8201 11.5801 6.87583 12.0229 8.04125 12.0229ZM14.266 7.78032C14.8178 7.72197 15.3834 7.66362 15.877 7.47826L15.901 7.85584C15.9798 9.02975 15.613 10.1144 14.8692 10.9108C14.1357 11.6968 13.1005 12.1293 11.9523 12.1293C11.8494 12.1293 11.7466 12.1259 11.6438 12.119L11.4758 12.1087L14.2111 9.36613L13.8101 8.96453L11.0713 11.7071L11.0611 11.5492C10.9891 8.12014 12.5795 7.95538 14.266 7.78032ZM4.57584 7.70481L4.59641 7.41304C5.02487 7.56751 5.51503 7.61556 5.99149 7.66705C7.46882 7.82151 8.8639 7.96567 8.79877 10.9622L8.79192 11.0412L6.41995 8.66247L6.01891 9.06407L8.3943 11.4428L8.31547 11.4497C7.19461 11.5252 6.18686 11.1407 5.48419 10.389C4.82949 9.68879 4.50729 8.73455 4.57584 7.70481Z" fill="black"/>
</svg>
