<svg width="20" height="21" viewBox="0 0 20 21" fill="none" xmlns="http://www.w3.org/2000/svg">
<circle cx="10" cy="10.5" r="9.5" fill="white" stroke="black"/>
<path d="M12.6136 10.1445C12.9869 9.77119 13.2181 9.23786 13.2181 8.66897C13.2181 7.49564 12.2758 6.55342 11.1025 6.55342H10.6403V5.87786C10.6403 5.59342 10.4092 5.3623 10.1247 5.3623C9.84028 5.3623 9.60917 5.59342 9.60917 5.87786V6.55342H7.70695C7.42251 6.55342 7.19139 6.78453 7.19139 7.06897L7.13806 13.9134C7.13806 14.0556 7.19139 14.1801 7.28028 14.2867C7.36917 14.3756 7.51139 14.4467 7.65362 14.4467H9.60917V15.1223C9.60917 15.4067 9.84028 15.6379 10.1247 15.6379C10.4092 15.6379 10.6403 15.4067 10.6403 15.1223V14.429H11.3514C12.6314 14.429 13.6803 13.3801 13.6803 12.1001C13.6803 11.2823 13.2536 10.5712 12.6136 10.1445ZM9.60917 13.3979H8.16917L8.18695 10.7845H9.60917V13.3979ZM9.60917 9.75342H8.20473L8.22251 7.58453H9.62695V9.75342H9.60917ZM10.6403 7.58453H11.1025C11.707 7.58453 12.1869 8.06453 12.1869 8.66897C12.1869 9.27342 11.707 9.75342 11.1025 9.75342H10.6403V7.58453ZM11.3514 13.3979H10.6403V10.7845C10.6403 10.7845 11.2981 10.8023 11.3514 10.8023C12.0625 10.8023 12.6492 11.389 12.6492 12.1001C12.6492 12.8112 12.0625 13.3979 11.3514 13.3979Z" fill="black"/>
</svg>
