<svg width="35" height="35" viewBox="0 0 35 35" fill="none" xmlns="http://www.w3.org/2000/svg">
<circle cx="17.5" cy="17.5" r="17" fill="white" stroke="black"/>
<path d="M22.0738 16.8778C22.7271 16.2245 23.1316 15.2911 23.1316 14.2956C23.1316 12.2422 21.4827 10.5934 19.4294 10.5934H18.6205V9.41113C18.6205 8.91336 18.216 8.50891 17.7182 8.50891C17.2205 8.50891 16.816 8.91336 16.816 9.41113V10.5934H13.4871C12.9894 10.5934 12.5849 10.9978 12.5849 11.4956L12.4916 23.4734C12.4916 23.7222 12.5849 23.94 12.7405 24.1267C12.896 24.2822 13.1449 24.4067 13.3938 24.4067H16.816V25.5889C16.816 26.0867 17.2205 26.4911 17.7182 26.4911C18.216 26.4911 18.6205 26.0867 18.6205 25.5889V24.3756H19.8649C22.1049 24.3756 23.9405 22.54 23.9405 20.3C23.9405 18.8689 23.1938 17.6245 22.0738 16.8778ZM16.816 22.5711H14.296L14.3271 17.9978H16.816V22.5711ZM16.816 16.1934H14.3582L14.3894 12.3978H16.8471V16.1934H16.816ZM18.6205 12.3978H19.4294C20.4871 12.3978 21.3271 13.2378 21.3271 14.2956C21.3271 15.3534 20.4871 16.1934 19.4294 16.1934H18.6205V12.3978ZM19.8649 22.5711H18.6205V17.9978C18.6205 17.9978 19.7716 18.0289 19.8649 18.0289C21.1094 18.0289 22.136 19.0556 22.136 20.3C22.136 21.5445 21.1094 22.5711 19.8649 22.5711Z" fill="black"/>
</svg>
