<svg width="20" height="21" viewBox="0 0 20 21" fill="none" xmlns="http://www.w3.org/2000/svg">
<circle cx="10" cy="10.5" r="9.5" fill="white" stroke="black"/>
<path d="M13.8743 7.99145C13.8704 7.9879 13.8662 7.98482 13.8618 7.98223L11.3618 6.53062C11.3271 6.51049 11.2888 6.5 11.25 6.5H5.25C5.1837 6.5 5.12011 6.53059 5.07323 6.58504C5.02634 6.63948 5 6.71333 5 6.79032V13.1774C5.0001 13.221 5.00871 13.264 5.02518 13.3032C5.04166 13.3424 5.06556 13.3767 5.0951 13.4037C5.09862 13.4079 5.10248 13.4118 5.10663 13.4153L7.60663 15.4475L7.60742 15.4477C7.64919 15.4817 7.69898 15.5 7.75 15.5H13.75C13.8163 15.5 13.8799 15.4694 13.9268 15.415C13.9737 15.3605 14 15.2867 14 15.2097V8.24194C13.9999 8.19103 13.9882 8.14105 13.9661 8.09707C13.9441 8.05308 13.9124 8.01665 13.8743 7.99145ZM7.5 14.652L5.5 13.0262V12.2835L7.5 13.9093V14.652ZM7.5 13.2004L5.5 11.5746V7.26011L7.5 8.4214V13.2004ZM6.30908 7.08065H11.191L12.6909 7.95161H7.80908L6.30908 7.08065ZM11.375 8.53226V10.4194H10.125V8.53226H11.375ZM13.5 14.9194H8V14.0484H13.5V14.9194ZM13.5 13.4677H8V8.53226H9.625V10.7097C9.625 10.7867 9.65134 10.8605 9.69823 10.915C9.74511 10.9694 9.8087 11 9.875 11H11.625C11.6913 11 11.7549 10.9694 11.8018 10.915C11.8487 10.8605 11.875 10.7867 11.875 10.7097V8.53226H13.5V13.4677Z" fill="black"/>
</svg>
