<svg width="35" height="35" viewBox="0 0 35 35" fill="none" xmlns="http://www.w3.org/2000/svg">
<circle cx="17.5" cy="17.5" r="17" fill="white" stroke="black"/>
<path d="M24.28 13.11C24.2732 13.1038 24.2659 13.0984 24.2582 13.0939L19.8832 10.5536C19.8224 10.5183 19.7554 10.5 19.6875 10.5H9.1875C9.07147 10.5 8.96019 10.5535 8.87815 10.6488C8.7961 10.7441 8.75001 10.8733 8.75 11.0081V22.1855C8.75018 22.2618 8.76525 22.3371 8.79407 22.4056C8.8229 22.4742 8.86473 22.5343 8.91642 22.5814C8.92259 22.5889 8.92934 22.5957 8.9366 22.6018L13.3116 26.1582L13.313 26.1585C13.3861 26.218 13.4732 26.25 13.5625 26.25H24.0625C24.1785 26.25 24.2898 26.1965 24.3719 26.1012C24.4539 26.0059 24.5 25.8767 24.5 25.7419V13.5484C24.4998 13.4593 24.4794 13.3718 24.4408 13.2949C24.4021 13.2179 24.3467 13.1541 24.28 13.11ZM13.125 24.7661L9.625 21.9209V20.621L13.125 23.4662V24.7661ZM13.125 22.2257L9.625 19.3806V11.8302L13.125 13.8625V22.2257ZM11.0409 11.5161H19.5842L22.2091 13.0403H13.6659L11.0409 11.5161ZM19.9062 14.0565V17.3589H17.7188V14.0565H19.9062ZM23.625 25.2339H14V23.7097H23.625V25.2339ZM23.625 22.6935H14V14.0565H16.8438V17.8669C16.8438 18.0017 16.8899 18.1309 16.9719 18.2262C17.0539 18.3215 17.1652 18.375 17.2812 18.375H20.3438C20.4598 18.375 20.5711 18.3215 20.6531 18.2262C20.7351 18.1309 20.7812 18.0017 20.7812 17.8669V14.0565H23.625V22.6935Z" fill="black"/>
</svg>
