<svg width="20" height="21" viewBox="0 0 20 21" fill="none" xmlns="http://www.w3.org/2000/svg">
<circle cx="10" cy="10.5" r="9.5" fill="white" stroke="black"/>
<path d="M10 6.5H6.5C5.67 6.5 5 7.18523 5 8.03409V12.125C5 12.9739 5.67 13.6591 6.5 13.6591L6 14.1705V14.6818H6.5L7.5 13.6437L8.5 13.6591V11.1023H6V7.5125L10.5 7.52273V8.54545H11.5V8.03409C11.5 7.18523 10.83 6.5 10 6.5ZM6.5 11.6136C6.775 11.6136 7 11.8438 7 12.125C7 12.4062 6.775 12.6364 6.5 12.6364C6.225 12.6364 6 12.4062 6 12.125C6 11.8438 6.225 11.6136 6.5 11.6136ZM14.285 9.39432C14.215 9.18977 14.025 9.05682 13.8 9.05682H10.205C9.975 9.05682 9.79 9.18977 9.715 9.39432L9 11.496L9.005 14.3136C9.005 14.508 9.16 14.6818 9.35 14.6818H9.66C9.85 14.6818 10 14.4875 10 14.2932V13.6591H14V14.2932C14 14.4875 14.155 14.6818 14.345 14.6818H14.65C14.84 14.6818 14.995 14.508 14.995 14.3136L15 13.6131V11.496L14.285 9.39432ZM10.205 9.56818H13.8L14.315 11.1023H9.69L10.205 9.56818ZM10 12.6364C9.725 12.6364 9.5 12.4062 9.5 12.125C9.5 11.8438 9.725 11.6136 10 11.6136C10.275 11.6136 10.5 11.8438 10.5 12.125C10.5 12.4062 10.275 12.6364 10 12.6364ZM14 12.6364C13.725 12.6364 13.5 12.4062 13.5 12.125C13.5 11.8438 13.725 11.6136 14 11.6136C14.275 11.6136 14.5 11.8438 14.5 12.125C14.5 12.4062 14.275 12.6364 14 12.6364Z" fill="black"/>
</svg>
