<svg width="35" height="35" viewBox="0 0 35 35" fill="none" xmlns="http://www.w3.org/2000/svg">
<circle cx="17.5" cy="17.5" r="17" fill="white" stroke="black"/>
<path d="M17.5 10.5H11.375C9.9225 10.5 8.75 11.6991 8.75 13.1847V20.3438C8.75 21.8293 9.9225 23.0284 11.375 23.0284L10.5 23.9233V24.8182H11.375L13.125 23.0016L14.875 23.0284V18.554H10.5V12.2719L18.375 12.2898V14.0795H20.125V13.1847C20.125 11.6991 18.9525 10.5 17.5 10.5ZM11.375 19.4489C11.8563 19.4489 12.25 19.8516 12.25 20.3438C12.25 20.8359 11.8563 21.2386 11.375 21.2386C10.8937 21.2386 10.5 20.8359 10.5 20.3438C10.5 19.8516 10.8937 19.4489 11.375 19.4489ZM24.9987 15.5651C24.8762 15.2071 24.5438 14.9744 24.15 14.9744H17.8587C17.4563 14.9744 17.1325 15.2071 17.0013 15.5651L15.75 19.243L15.7587 24.1739C15.7587 24.5139 16.03 24.8182 16.3625 24.8182H16.905C17.2375 24.8182 17.5 24.4781 17.5 24.1381V23.0284H24.5V24.1381C24.5 24.4781 24.7712 24.8182 25.1038 24.8182H25.6375C25.97 24.8182 26.2412 24.5139 26.2412 24.1739L26.25 22.9479V19.243L24.9987 15.5651ZM17.8587 15.8693H24.15L25.0512 18.554H16.9575L17.8587 15.8693ZM17.5 21.2386C17.0188 21.2386 16.625 20.8359 16.625 20.3438C16.625 19.8516 17.0188 19.4489 17.5 19.4489C17.9812 19.4489 18.375 19.8516 18.375 20.3438C18.375 20.8359 17.9812 21.2386 17.5 21.2386ZM24.5 21.2386C24.0188 21.2386 23.625 20.8359 23.625 20.3438C23.625 19.8516 24.0188 19.4489 24.5 19.4489C24.9813 19.4489 25.375 19.8516 25.375 20.3438C25.375 20.8359 24.9813 21.2386 24.5 21.2386Z" fill="black"/>
</svg>
