<svg width="20" height="21" viewBox="0 0 20 21" fill="none" xmlns="http://www.w3.org/2000/svg">
<circle cx="10" cy="10.5" r="9.5" fill="white" stroke="black"/>
<path d="M13.6939 9.825L10.0439 4.7C9.9439 4.575 9.7939 4.5 9.6439 4.5C9.4939 4.5 9.3189 4.575 9.2439 4.7L5.5939 9.825C5.5939 9.85 5.5689 9.85 5.5689 9.875C4.7939 11.2 4.8189 12.8 5.5939 14.15C6.4439 15.6 7.9939 16.5 9.6439 16.5C11.2939 16.5 12.8439 15.6 13.6939 14.15C14.4689 12.775 14.4939 11.175 13.7189 9.875C13.7189 9.85 13.6939 9.825 13.6939 9.825ZM12.8189 13.65C12.1689 14.775 10.9439 15.5 9.6439 15.5C8.3439 15.5 7.1189 14.8 6.4689 13.65C5.8689 12.6 5.8439 11.4 6.4189 10.375L9.6439 5.85L12.8689 10.375C13.4439 11.4 13.4439 12.575 12.8189 13.65Z" fill="black"/>
<path d="M11.7689 11.3251C11.4939 11.3251 11.2689 11.5501 11.2689 11.8251C11.2689 12.7751 10.4939 13.5501 9.54388 13.5501C9.26888 13.5501 9.04388 13.7751 9.04388 14.0501C9.04388 14.3251 9.26888 14.5501 9.54388 14.5501C11.0439 14.5501 12.2689 13.3251 12.2689 11.8251C12.2689 11.5501 12.0439 11.3251 11.7689 11.3251Z" fill="black"/>
</svg>
