<svg width="35" height="35" viewBox="0 0 35 35" fill="none" xmlns="http://www.w3.org/2000/svg">
<circle cx="17.5" cy="17.5" r="17" fill="white" stroke="black"/>
<path d="M23.9643 16.3187L17.5768 7.35C17.4018 7.13125 17.1393 7 16.8768 7C16.6143 7 16.3081 7.13125 16.1768 7.35L9.78933 16.3187C9.78933 16.3625 9.74558 16.3625 9.74558 16.4062C8.38933 18.725 8.43308 21.525 9.78933 23.8875C11.2768 26.425 13.9893 28 16.8768 28C19.7643 28 22.4768 26.425 23.9643 23.8875C25.3206 21.4812 25.3643 18.6812 24.0081 16.4062C24.0081 16.3625 23.9643 16.3187 23.9643 16.3187ZM22.4331 23.0125C21.2956 24.9812 19.1518 26.25 16.8768 26.25C14.6018 26.25 12.4581 25.025 11.3206 23.0125C10.2706 21.175 10.2268 19.075 11.2331 17.2812L16.8768 9.3625L22.5206 17.2812C23.5268 19.075 23.5268 21.1312 22.4331 23.0125Z" fill="black"/>
<path d="M20.5956 18.9437C20.1143 18.9437 19.7206 19.3375 19.7206 19.8187C19.7206 21.4812 18.3643 22.8375 16.7018 22.8375C16.2206 22.8375 15.8268 23.2312 15.8268 23.7125C15.8268 24.1937 16.2206 24.5875 16.7018 24.5875C19.3268 24.5875 21.4706 22.4437 21.4706 19.8187C21.4706 19.3375 21.0768 18.9437 20.5956 18.9437Z" fill="black"/>
</svg>
