<svg width="35" height="35" viewBox="0 0 35 35" fill="none" xmlns="http://www.w3.org/2000/svg">
<circle cx="17.5" cy="17.5" r="17" fill="white" stroke="black"/>
<path d="M18.2197 8.75C12.9872 8.75 8.75 12.9967 8.75 18.2292C8.75 23.4617 12.9872 27.7083 18.2197 27.7083C23.4617 27.7083 27.7083 23.4617 27.7083 18.2292C27.7083 12.9967 23.4617 8.75 18.2197 8.75ZM24.7887 14.4375H21.9924C21.6891 13.2526 21.253 12.1151 20.6843 11.0629C22.4284 11.6601 23.8787 12.8734 24.7887 14.4375ZM18.2292 10.6838C19.0159 11.8213 19.6321 13.082 20.0397 14.4375H16.4186C16.8263 13.082 17.4424 11.8213 18.2292 10.6838ZM10.8923 20.125C10.7406 19.5183 10.6458 18.8832 10.6458 18.2292C10.6458 17.5751 10.7406 16.94 10.8923 16.3333H14.0963C14.0204 16.959 13.9635 17.5846 13.9635 18.2292C13.9635 18.8738 14.0204 19.4994 14.0963 20.125H10.8923ZM11.6696 22.0208H14.4659C14.7693 23.2057 15.2053 24.3432 15.7741 25.3954C14.0299 24.7982 12.5796 23.5944 11.6696 22.0208ZM14.4659 14.4375H11.6696C12.5796 12.864 14.0299 11.6601 15.7741 11.0629C15.2053 12.1151 14.7693 13.2526 14.4659 14.4375ZM18.2292 25.7746C17.4424 24.6371 16.8263 23.3764 16.4186 22.0208H20.0397C19.6321 23.3764 19.0159 24.6371 18.2292 25.7746ZM20.4473 20.125H16.011C15.9257 19.4994 15.8594 18.8738 15.8594 18.2292C15.8594 17.5846 15.9257 16.9495 16.011 16.3333H20.4473C20.5326 16.9495 20.599 17.5846 20.599 18.2292C20.599 18.8738 20.5326 19.4994 20.4473 20.125ZM20.6843 25.3954C21.253 24.3432 21.6891 23.2057 21.9924 22.0208H24.7887C23.8787 23.5849 22.4284 24.7982 20.6843 25.3954ZM22.3621 20.125C22.4379 19.4994 22.4948 18.8738 22.4948 18.2292C22.4948 17.5846 22.4379 16.959 22.3621 16.3333H25.566C25.7177 16.94 25.8125 17.5751 25.8125 18.2292C25.8125 18.8832 25.7177 19.5183 25.566 20.125H22.3621Z" fill="black"/>
</svg>
