<svg width="20" height="21" viewBox="0 0 20 21" fill="none" xmlns="http://www.w3.org/2000/svg">
<circle cx="10" cy="10.5" r="9.5" fill="white" stroke="black"/>
<path d="M10.4113 5.5C7.42125 5.5 5 7.92667 5 10.9167C5 13.9067 7.42125 16.3333 10.4113 16.3333C13.4067 16.3333 15.8333 13.9067 15.8333 10.9167C15.8333 7.92667 13.4067 5.5 10.4113 5.5ZM14.165 8.75H12.5671C12.3938 8.07292 12.1446 7.42292 11.8196 6.82167C12.8163 7.16292 13.645 7.85625 14.165 8.75ZM10.4167 6.605C10.8663 7.255 11.2183 7.97542 11.4513 8.75H9.38208C9.615 7.97542 9.96708 7.255 10.4167 6.605ZM6.22417 12C6.1375 11.6533 6.08333 11.2904 6.08333 10.9167C6.08333 10.5429 6.1375 10.18 6.22417 9.83333H8.055C8.01167 10.1908 7.97917 10.5483 7.97917 10.9167C7.97917 11.285 8.01167 11.6425 8.055 12H6.22417ZM6.66833 13.0833H8.26625C8.43958 13.7604 8.68875 14.4104 9.01375 15.0117C8.01708 14.6704 7.18833 13.9825 6.66833 13.0833ZM8.26625 8.75H6.66833C7.18833 7.85083 8.01708 7.16292 9.01375 6.82167C8.68875 7.42292 8.43958 8.07292 8.26625 8.75ZM10.4167 15.2283C9.96708 14.5783 9.615 13.8579 9.38208 13.0833H11.4513C11.2183 13.8579 10.8663 14.5783 10.4167 15.2283ZM11.6842 12H9.14917C9.10042 11.6425 9.0625 11.285 9.0625 10.9167C9.0625 10.5483 9.10042 10.1854 9.14917 9.83333H11.6842C11.7329 10.1854 11.7708 10.5483 11.7708 10.9167C11.7708 11.285 11.7329 11.6425 11.6842 12ZM11.8196 15.0117C12.1446 14.4104 12.3938 13.7604 12.5671 13.0833H14.165C13.645 13.9771 12.8163 14.6704 11.8196 15.0117ZM12.7783 12C12.8217 11.6425 12.8542 11.285 12.8542 10.9167C12.8542 10.5483 12.8217 10.1908 12.7783 9.83333H14.6092C14.6958 10.18 14.75 10.5429 14.75 10.9167C14.75 11.2904 14.6958 11.6533 14.6092 12H12.7783Z" fill="black"/>
</svg>
