<svg width="20" height="21" viewBox="0 0 20 21" fill="none" xmlns="http://www.w3.org/2000/svg">
<circle cx="10" cy="10.5" r="9.5" fill="white" stroke="black"/>
<path d="M7.08335 7.62421L7.91752 8.45837C8.44835 7.92754 9.18919 7.59504 10 7.59504C10.8109 7.59504 11.5517 7.92754 12.0825 8.45837L12.9167 7.62421C12.17 6.87754 11.1375 6.41671 10 6.41671C8.86252 6.41671 7.83002 6.87754 7.08335 7.62421ZM10 4.08337C8.23835 4.08337 6.64002 4.80087 5.47919 5.95587L6.30169 6.77837C7.24669 5.83337 8.55919 5.25004 10 5.25004C11.4409 5.25004 12.7534 5.83337 13.6984 6.77837L14.5209 5.95587C13.36 4.80087 11.7617 4.08337 10 4.08337ZM11.6684 9.33921L8.33169 9.33337C7.96419 9.33337 7.66669 9.63087 7.66669 9.99837V15.6625C7.66669 16.03 7.96419 16.3275 8.33169 16.3275H11.6625C12.03 16.3275 12.3275 16.03 12.3275 15.6625V9.99837C12.3334 9.63087 12.0359 9.33921 11.6684 9.33921ZM11.75 15.1667H8.25002V10.5H11.75V15.1667Z" fill="black"/>
</svg>
