<svg width="35" height="35" viewBox="0 0 35 35" fill="none" xmlns="http://www.w3.org/2000/svg">
<circle cx="17.5" cy="17.5" r="17" fill="white" stroke="black"/>
<path d="M12.3958 12.4673L13.8556 13.9271C14.7845 12.9982 16.081 12.4163 17.5 12.4163C18.9189 12.4163 20.2154 12.9982 21.1443 13.9271L22.6041 12.4673C21.2975 11.1607 19.4906 10.3542 17.5 10.3542C15.5093 10.3542 13.7025 11.1607 12.3958 12.4673ZM17.5 6.27087C14.417 6.27087 11.62 7.5265 9.5885 9.54775L11.0279 10.9871C12.6816 9.33337 14.9785 8.31254 17.5 8.31254C20.0214 8.31254 22.3183 9.33337 23.972 10.9871L25.4114 9.54775C23.38 7.5265 20.5829 6.27087 17.5 6.27087ZM20.4195 15.4686L14.5804 15.4584C13.9373 15.4584 13.4166 15.979 13.4166 16.6221V26.5344C13.4166 27.1775 13.9373 27.6982 14.5804 27.6982H20.4093C21.0525 27.6982 21.5731 27.1775 21.5731 26.5344V16.6221C21.5833 15.979 21.0627 15.4686 20.4195 15.4686ZM20.5625 25.6667H14.4375V17.5H20.5625V25.6667Z" fill="black"/>
</svg>
