<svg width="31" height="31" viewBox="0 0 31 31" fill="none" xmlns="http://www.w3.org/2000/svg">
<path d="M23.9809 4.36719H6.64715C5.9904 4.36719 5.36056 4.62882 4.89617 5.09454C4.43179 5.56025 4.1709 6.1919 4.1709 6.85052V24.2339C4.1709 24.8925 4.43179 25.5241 4.89617 25.9898C5.36056 26.4556 5.9904 26.7172 6.64715 26.7172H23.9809C24.6376 26.7172 25.2675 26.4556 25.7318 25.9898C26.1962 25.5241 26.4571 24.8925 26.4571 24.2339V6.85052C26.4571 6.1919 26.1962 5.56025 25.7318 5.09454C25.2675 4.62882 24.6376 4.36719 23.9809 4.36719ZM23.9809 24.2339H6.64715V6.85052H23.9809V24.2339ZM21.5046 11.0722L17.0474 15.5422L21.5046 20.0122L19.7713 21.7505L15.314 17.2805L10.8568 21.7505L9.12339 20.0122L13.5806 15.5422L9.12339 11.0722L10.8568 9.33385L15.314 13.8039L19.7713 9.33385L21.5046 11.0722Z" fill="#E7384A"/>
</svg>
