<svg width="14" height="13" viewBox="0 0 14 13" fill="none" xmlns="http://www.w3.org/2000/svg">
<path d="M5.375 5.77787H4.29167V6.80961H5.375V5.77787ZM7.54167 5.77787H6.45833V6.80961H7.54167V5.77787ZM9.70833 5.77787H8.625V6.80961H9.70833V5.77787ZM10.7917 2.16676H10.25V1.13501H9.16667V2.16676H4.83333V1.13501H3.75V2.16676H3.20833C2.60708 2.16676 2.125 2.63104 2.125 3.1985V10.4207C2.125 10.6944 2.23914 10.9568 2.4423 11.1503C2.64547 11.3438 2.92102 11.4525 3.20833 11.4525H10.7917C11.079 11.4525 11.3545 11.3438 11.5577 11.1503C11.7609 10.9568 11.875 10.6944 11.875 10.4207V3.1985C11.875 2.92487 11.7609 2.66244 11.5577 2.46895C11.3545 2.27546 11.079 2.16676 10.7917 2.16676ZM10.7917 10.4207H3.20833V4.74612H10.7917V10.4207Z" fill="#E7384A"/>
</svg>
