<svg width="221" height="123" viewBox="0 0 221 123" fill="none" xmlns="http://www.w3.org/2000/svg">
<path d="M138.743 41.7302H136.807C135.946 35.9198 131.642 31.4006 126.047 31.4006C120.451 31.4006 116.147 35.9198 115.287 41.7302H113.35V45.1734H115.287C116.147 50.9838 120.451 55.503 126.047 55.503C131.642 55.503 135.946 50.9838 136.807 45.1734H138.743V41.7302ZM122.819 42.591C122.173 42.591 121.527 41.9454 121.527 41.2998C121.527 40.6542 122.173 40.0086 122.819 40.0086C123.464 40.0086 124.11 40.6542 124.11 41.2998C124.11 41.9454 123.464 42.591 122.819 42.591ZM129.49 42.591C128.844 42.591 128.199 41.9454 128.199 41.2998C128.199 40.6542 128.844 40.0086 129.49 40.0086C130.135 40.0086 130.781 40.6542 130.781 41.2998C130.781 41.9454 130.135 42.591 129.49 42.591Z" fill="#E3E9F4"/>
<path d="M138.743 10.3296H136.807C135.946 4.5192 131.642 0 126.047 0C120.451 0 116.147 4.5192 115.287 10.3296H113.35V13.7728H115.287C116.147 19.5832 120.451 24.1024 126.047 24.1024C131.642 24.1024 135.946 19.5832 136.807 13.7728H138.743V10.3296ZM122.819 11.1904C122.173 11.1904 121.527 10.5448 121.527 9.89921C121.527 9.25361 122.173 8.608 122.819 8.608C123.464 8.608 124.11 9.25361 124.11 9.89921C124.11 10.5448 123.464 11.1904 122.819 11.1904ZM129.49 11.1904C128.844 11.1904 128.199 10.5448 128.199 9.89921C128.199 9.25361 128.844 8.608 129.49 8.608C130.135 8.608 130.781 9.25361 130.781 9.89921C130.781 10.5448 130.135 11.1904 129.49 11.1904Z" fill="#EE7480"/>
<path d="M170.694 41.7302H168.757C167.897 35.9198 163.593 31.4006 157.997 31.4006C152.402 31.4006 148.098 35.9198 147.237 41.7302H145.301V45.1734H147.237C148.098 50.9838 152.402 55.503 157.997 55.503C163.593 55.503 167.897 50.9838 168.757 45.1734H170.694V41.7302ZM154.769 42.591C154.124 42.591 153.478 41.9454 153.478 41.2998C153.478 40.6542 154.124 40.0086 154.769 40.0086C155.415 40.0086 156.061 40.6542 156.061 41.2998C156.061 41.9454 155.415 42.591 154.769 42.591ZM161.441 42.591C160.795 42.591 160.149 41.9454 160.149 41.2998C160.149 40.6542 160.795 40.0086 161.441 40.0086C162.086 40.0086 162.732 40.6542 162.732 41.2998C162.732 41.9454 162.086 42.591 161.441 42.591Z" fill="#FBDFE2"/>
<path d="M171.455 10.3296H169.518C168.657 4.5192 164.353 0 158.758 0C153.163 0 148.859 4.5192 147.998 10.3296H146.061V13.7728H147.998C148.859 19.5832 153.163 24.1024 158.758 24.1024C164.353 24.1024 168.657 19.5832 169.518 13.7728H171.455V10.3296ZM155.53 11.1904C154.885 11.1904 154.239 10.5448 154.239 9.89921C154.239 9.25361 154.885 8.608 155.53 8.608C156.176 8.608 156.821 9.25361 156.821 9.89921C156.821 10.5448 156.176 11.1904 155.53 11.1904ZM162.201 11.1904C161.556 11.1904 160.91 10.5448 160.91 9.89921C160.91 9.25361 161.556 8.608 162.201 8.608C162.847 8.608 163.493 9.25361 163.493 9.89921C163.493 10.5448 162.847 11.1904 162.201 11.1904Z" fill="white"/>
<path d="M205.558 10.3296H203.621C202.761 4.5192 198.457 0 192.861 0C187.266 0 182.962 4.5192 182.101 10.3296H180.165V13.7728H182.101C182.962 19.5832 187.266 24.1024 192.861 24.1024C198.457 24.1024 202.761 19.5832 203.621 13.7728H205.558V10.3296ZM189.633 11.1904C188.988 11.1904 188.342 10.5448 188.342 9.89921C188.342 9.25361 188.988 8.608 189.633 8.608C190.279 8.608 190.925 9.25361 190.925 9.89921C190.925 10.5448 190.279 11.1904 189.633 11.1904ZM196.305 11.1904C195.659 11.1904 195.013 10.5448 195.013 9.89921C195.013 9.25361 195.659 8.608 196.305 8.608C196.95 8.608 197.596 9.25361 197.596 9.89921C197.596 10.5448 196.95 11.1904 196.305 11.1904Z" fill="#E3E9F4"/>
<path d="M106.792 41.7302H104.856C103.995 35.9198 99.6908 31.4006 94.0956 31.4006C88.7155 31.4006 84.1963 35.9198 83.3355 41.7302H81.3987V45.1734H83.3355C84.1963 50.9838 88.5003 55.503 94.0956 55.503C99.4756 55.503 103.995 50.9838 104.856 45.1734H106.792V41.7302ZM90.8675 42.591C90.2219 42.591 89.5763 41.9454 89.5763 41.2998C89.5763 40.6542 90.2219 40.0086 90.8675 40.0086C91.5131 40.0086 92.1588 40.6542 92.1588 41.2998C92.1588 41.9454 91.5131 42.591 90.8675 42.591ZM97.5388 42.591C96.8932 42.591 96.2476 41.9454 96.2476 41.2998C96.2476 40.6542 96.8932 40.0086 97.5388 40.0086C98.1844 40.0086 98.83 40.6542 98.83 41.2998C98.83 41.9454 98.1844 42.591 97.5388 42.591Z" fill="#FBDFE2"/>
<path d="M106.032 10.3296H104.095C103.234 4.5192 98.93 0 93.3348 0C87.9548 0 83.4356 4.5192 82.5748 10.3296H80.638V13.7728H82.5748C83.4356 19.5832 87.7396 24.1024 93.3348 24.1024C98.7148 24.1024 103.234 19.5832 104.095 13.7728H106.032V10.3296ZM90.1068 11.1904C89.4612 11.1904 88.8156 10.5448 88.8156 9.89921C88.8156 9.25361 89.4612 8.608 90.1068 8.608C90.7524 8.608 91.398 9.25361 91.398 9.89921C91.398 10.5448 90.7524 11.1904 90.1068 11.1904ZM96.778 11.1904C96.1324 11.1904 95.4868 10.5448 95.4868 9.89921C95.4868 9.25361 96.1324 8.608 96.778 8.608C97.4236 8.608 98.0692 9.25361 98.0692 9.89921C98.0692 10.5448 97.4236 11.1904 96.778 11.1904Z" fill="white"/>
<path d="M74.9142 41.7302H72.9774C72.1166 35.9198 67.8126 31.4006 62.2173 31.4006C56.8373 31.4006 52.3181 35.9198 51.4573 41.7302H49.5205V45.1734H51.4573C52.3181 50.9838 56.6221 55.503 62.2173 55.503C67.5974 55.503 72.1166 50.9838 72.9774 45.1734H74.9142V41.7302ZM58.9893 42.591C58.3437 42.591 57.6981 41.9454 57.6981 41.2998C57.6981 40.6542 58.3437 40.0086 58.9893 40.0086C59.6349 40.0086 60.2805 40.6542 60.2805 41.2998C60.2805 41.9454 59.6349 42.591 58.9893 42.591ZM65.6606 42.591C65.0149 42.591 64.3693 41.9454 64.3693 41.2998C64.3693 40.6542 65.0149 40.0086 65.6606 40.0086C66.3062 40.0086 66.9518 40.6542 66.9518 41.2998C66.9518 41.9454 66.3062 42.591 65.6606 42.591Z" fill="white"/>
<path d="M40.2136 10.3296H38.2768C37.416 4.5192 33.112 0 27.5168 0C22.1368 0 17.6176 4.5192 16.7568 10.3296H14.82V13.7728H16.7568C17.6176 19.5832 21.9216 24.1024 27.5168 24.1024C32.8968 24.1024 37.416 19.5832 38.2768 13.7728H40.2136V10.3296ZM24.2888 11.1904C23.6432 11.1904 22.9976 10.5448 22.9976 9.89921C22.9976 9.25361 23.6432 8.608 24.2888 8.608C24.9344 8.608 25.58 9.25361 25.58 9.89921C25.58 10.5448 24.9344 11.1904 24.2888 11.1904ZM30.96 11.1904C30.3144 11.1904 29.6688 10.5448 29.6688 9.89921C29.6688 9.25361 30.3144 8.608 30.96 8.608C31.6056 8.608 32.2512 9.25361 32.2512 9.89921C32.2512 10.5448 31.6056 11.1904 30.96 11.1904Z" fill="#E3E9F4"/>
<path d="M73.32 10.3296H71.3832C70.5224 4.5192 66.2184 0 60.6232 0C55.2432 0 50.724 4.5192 49.8632 10.3296H47.9264V13.7728H49.8632C50.724 19.5832 55.028 24.1024 60.6232 24.1024C66.0032 24.1024 70.5224 19.5832 71.3832 13.7728H73.32V10.3296ZM57.3952 11.1904C56.7496 11.1904 56.104 10.5448 56.104 9.89921C56.104 9.25361 56.7496 8.608 57.3952 8.608C58.0408 8.608 58.6864 9.25361 58.6864 9.89921C58.6864 10.5448 58.0408 11.1904 57.3952 11.1904ZM64.0664 11.1904C63.4208 11.1904 62.7752 10.5448 62.7752 9.89921C62.7752 9.25361 63.4208 8.608 64.0664 8.608C64.712 8.608 65.3576 9.25361 65.3576 9.89921C65.3576 10.5448 64.712 11.1904 64.0664 11.1904Z" fill="#FBDFE2"/>
<path d="M89.4285 66.6934H87.4917C86.6309 60.883 82.3269 56.3638 76.7317 56.3638C71.3517 56.3638 66.8325 60.883 65.9717 66.6934H64.2501V70.1367H66.1869C67.0477 75.9471 71.3517 80.4663 76.9469 80.4663C82.3269 80.4663 86.8461 75.9471 87.7069 70.1367H89.6437V66.6934H89.4285ZM73.5037 67.5543C72.8581 67.5543 72.2125 66.9087 72.2125 66.2631C72.2125 65.6175 72.8581 64.9719 73.5037 64.9719C74.1493 64.9719 74.7949 65.6175 74.7949 66.2631C74.7949 67.1239 74.1493 67.5543 73.5037 67.5543ZM80.1749 67.5543C79.5293 67.5543 78.8837 66.9087 78.8837 66.2631C78.8837 65.6175 79.5293 64.9719 80.1749 64.9719C80.8205 64.9719 81.4661 65.6175 81.4661 66.2631C81.2509 67.1239 80.8205 67.5543 80.1749 67.5543Z" fill="#8CA5D2"/>
<path d="M152.482 66.6934H150.545C149.684 60.883 145.38 56.3638 139.785 56.3638C134.19 56.3638 129.886 60.883 129.025 66.6934H127.304V70.1367H129.24C130.101 75.9471 134.405 80.4663 140 80.4663C145.596 80.4663 149.9 75.9471 150.76 70.1367H152.697V66.6934H152.482ZM136.557 67.5543C135.912 67.5543 135.266 66.9087 135.266 66.2631C135.266 65.6175 135.912 64.9719 136.557 64.9719C137.203 64.9719 137.848 65.6175 137.848 66.2631C137.848 67.1239 137.203 67.5543 136.557 67.5543ZM143.228 67.5543C142.583 67.5543 141.937 66.9087 141.937 66.2631C141.937 65.6175 142.583 64.9719 143.228 64.9719C143.874 64.9719 144.52 65.6175 144.52 66.2631C144.304 67.1239 143.874 67.5543 143.228 67.5543Z" fill="white"/>
<path d="M116.759 80.2512C116.328 80.6816 116.113 80.8968 115.683 81.112C114.822 81.9728 113.746 82.4032 112.67 82.8336L109.872 87.7832L113.1 93.1632L108.581 114.898L103.631 93.3784L106.859 87.9984L104.062 83.0488C102.986 82.6184 101.91 81.9728 101.049 81.3272C100.619 81.112 100.403 80.6816 99.9731 80.4664L99.1123 84.9856L81.2506 91.2264V120.709C81.681 120.924 82.3266 121.354 82.9722 121.57V92.0872L100.188 86.2768L108.581 122.43L116.974 86.2768L134.19 92.0872V121.354C134.835 121.139 135.266 120.709 135.911 120.494V91.0112L118.05 84.7704L116.759 80.2512Z" fill="white"/>
<path d="M68.3388 86.4919L55.642 90.7959C55.8572 91.2263 56.0724 91.8719 56.2876 92.3023L69.63 87.7831L70.706 81.9727L69.1996 81.5423L68.3388 86.4919Z" fill="white"/>
<path d="M49.5661 63.1453L36.8693 67.4493C37.0845 67.8797 37.2997 68.5253 37.5149 68.9557L50.8573 64.4365L51.9333 58.6261L50.4269 58.1957L49.5661 63.1453Z" fill="white"/>
<path d="M83.6968 81.6795L82.2214 81.9838L83.3082 87.253L84.7836 86.9487L83.6968 81.6795Z" fill="white"/>
<path d="M148.178 86.492L147.102 81.7576L145.596 82.188L146.672 87.9984L160.014 92.5176C160.229 92.0872 160.445 91.4416 160.66 91.0112L148.178 86.492Z" fill="white"/>
<path d="M167.921 62.9802L166.845 58.2458L165.339 58.6762L166.415 64.4866L179.757 69.0058C179.973 68.5754 180.188 67.9298 180.403 67.4994L167.921 62.9802Z" fill="white"/>
<path d="M132.796 81.7076L131.71 86.9767L133.186 87.2809L134.272 82.0117L132.796 81.7076Z" fill="white"/>
<path d="M120.848 68.415H118.911C118.05 62.6046 113.746 58.0854 108.151 58.0854C102.556 58.0854 98.2517 62.6046 97.3909 68.415H95.4541V71.8582H97.3909C98.2517 77.6686 102.556 82.1878 108.151 82.1878C113.746 82.1878 118.05 77.6686 118.911 71.8582H120.848V68.415ZM104.923 69.2758C104.277 69.2758 103.632 68.6302 103.632 67.9846C103.632 67.339 104.277 66.6934 104.923 66.6934C105.568 66.6934 106.214 67.339 106.214 67.9846C106.214 68.6302 105.568 69.2758 104.923 69.2758ZM111.594 69.2758C110.948 69.2758 110.303 68.6302 110.303 67.9846C110.303 67.339 110.948 66.6934 111.594 66.6934C112.24 66.6934 112.885 67.339 112.885 67.9846C112.885 68.6302 112.24 69.2758 111.594 69.2758Z" fill="#FBDFE2"/>
<path fill-rule="evenodd" clip-rule="evenodd" d="M40.1225 31.7058V33.5358L35.7232 32.051L27.3304 68.2046L18.9375 32.051L1.72154 37.8614V67.3438C1.27141 67.1938 0.821288 66.9391 0.444101 66.7258C0.2803 66.6331 0.130256 66.5482 -6.10352e-05 66.483V37.0006L17.8615 30.7598L18.7223 26.2406C18.9375 26.3482 19.0989 26.5096 19.2603 26.671C19.4217 26.8324 19.5831 26.9938 19.7983 27.1014C20.6591 27.747 21.7352 28.3926 22.8112 28.823L25.6088 33.7726L22.3808 39.1526L27.3304 60.6726L31.8496 38.9374L28.6216 33.5574L31.4192 28.6078C32.4952 28.1774 33.5712 27.747 34.432 26.8862C34.8623 26.671 35.0775 26.4558 35.5079 26.0255L35.508 26.0254L36.7992 30.5446L40.1225 31.7058Z" fill="white"/>
<path fill-rule="evenodd" clip-rule="evenodd" d="M180.371 31.7058V33.5358L184.77 32.051L193.163 68.2046L201.555 32.051L218.772 37.8614V67.3438C219.222 67.1938 219.672 66.9391 220.049 66.7258C220.213 66.6331 220.363 66.5482 220.493 66.483V37.0006L202.631 30.7598L201.771 26.2406C201.555 26.3482 201.394 26.5096 201.233 26.671C201.071 26.8324 200.91 26.9938 200.695 27.1014C199.834 27.747 198.758 28.3926 197.682 28.823L194.884 33.7726L198.112 39.1526L193.163 60.6726L188.643 38.9374L191.871 33.5574L189.074 28.6078C187.998 28.1774 186.922 27.747 186.061 26.8862C185.631 26.671 185.415 26.4558 184.985 26.0255L184.985 26.0254L183.694 30.5446L180.371 31.7058Z" fill="white"/>
</svg>
