<svg width="22" height="21" viewBox="0 0 22 21" fill="none" xmlns="http://www.w3.org/2000/svg">
<g clip-path="url(#clip0)">
<path d="M12.25 7.5H10.25V5.5H12.25V7.5ZM12.25 15.5H10.25V9.5H12.25V15.5ZM11.25 0.5C9.93678 0.5 8.63642 0.758658 7.42317 1.2612C6.20991 1.76375 5.10752 2.50035 4.17893 3.42893C2.30357 5.3043 1.25 7.84784 1.25 10.5C1.25 13.1522 2.30357 15.6957 4.17893 17.5711C5.10752 18.4997 6.20991 19.2362 7.42317 19.7388C8.63642 20.2413 9.93678 20.5 11.25 20.5C13.9022 20.5 16.4457 19.4464 18.3211 17.5711C20.1964 15.6957 21.25 13.1522 21.25 10.5C21.25 9.18678 20.9913 7.88642 20.4888 6.67317C19.9863 5.45991 19.2497 4.35752 18.3211 3.42893C17.3925 2.50035 16.2901 1.76375 15.0768 1.2612C13.8636 0.758658 12.5632 0.5 11.25 0.5Z" fill="white"/>
</g>
<defs>
<clipPath id="clip0">
<rect width="21" height="21" fill="white" transform="translate(0.75)"/>
</clipPath>
</defs>
</svg>
