<svg width="286" height="285" viewBox="0 0 286 285" fill="none" xmlns="http://www.w3.org/2000/svg">
<ellipse cx="143" cy="142.5" rx="143" ry="142.5" fill="#627493"/>
<g clip-path="url(#clip0)">
<rect x="125.208" y="139.049" width="32.1702" height="145.145" fill="#8CA5D2"/>
<rect x="216.089" y="170.497" width="58.8642" height="144.766" transform="rotate(90 216.089 170.497)" fill="#8CA5D2"/>
<path d="M172.345 136.612L168.126 116.091L142.5 132.308L116.874 116.091L112.655 136.612L48.9307 158.63V248.386C73.8742 270.592 106.636 284.064 142.5 284.064C178.426 284.064 211.126 270.592 236.069 248.386V158.63L172.345 136.612ZM95.7774 183.143C98.2593 183.143 100.245 185.139 100.245 187.634C100.245 190.129 98.2593 192.125 95.7774 192.125C93.2954 192.125 91.3099 190.129 91.3099 187.634C91.3099 185.139 93.2954 183.143 95.7774 183.143ZM115.509 214.018H76.0459V209.59H115.447V214.018H115.509ZM145.416 267.473H139.584V261.61H145.416V267.473ZM145.416 244.02H139.584V238.157H145.416V244.02ZM145.416 220.567H139.584V214.704H145.416V220.567ZM145.416 197.115H139.584V191.252H145.416V197.115ZM145.416 173.6H139.584V167.736H145.416V173.6ZM145.416 150.147H139.584V144.284H145.416V150.147ZM169.553 187.634V181.147H177.682V187.634H183.08V181.147H191.27V187.634H197.041V181.147H208.954V187.634V194.121H203.183V187.634H197.041V194.121H191.27V187.634H183.452V194.121H169.491V187.634H169.553ZM208.954 214.018H169.553V209.59H208.954V214.018Z" fill="white" stroke="black" stroke-width="2" stroke-miterlimit="10" stroke-linecap="round" stroke-linejoin="round"/>
<path d="M89.0141 126.133L49.6133 138.545V146.03L89.0141 133.618V126.133Z" fill="#E7384A" stroke="black" stroke-width="2" stroke-miterlimit="10" stroke-linecap="round" stroke-linejoin="round"/>
<path d="M196.048 126.133L235.387 138.545V146.03L196.048 133.618V126.133Z" fill="#E7384A" stroke="black" stroke-width="2" stroke-miterlimit="10" stroke-linecap="round" stroke-linejoin="round"/>
<path d="M180.681 82.2179C175.544 82.0113 173.798 87.8463 173.798 87.8463L172.257 76.8993L175.339 59.8593C175.339 59.8593 180.476 42.3029 140.923 38.6883C101.371 35.0738 107.021 59.3429 107.021 59.3429L107.175 88.4143C107.175 88.4143 104.864 82.0113 99.7269 82.2179C94.5902 82.4244 95.6689 91.0477 97.775 95.3852C99.9324 99.671 103.117 103.802 103.374 105.713C103.579 107.675 105.737 110.876 108.511 110.257C108.511 110.257 110.206 118.673 112.363 122.959C119.246 136.488 140.204 134.939 140.204 134.939C140.204 134.939 161.162 136.488 168.045 122.959C170.202 118.673 171.897 110.257 171.897 110.257C174.671 110.928 176.829 107.675 177.034 105.713C177.24 103.75 180.476 99.671 182.633 95.3852C184.739 91.0477 185.818 82.4244 180.681 82.2179Z" fill="#F6EFEB" stroke="black" stroke-width="2" stroke-miterlimit="10" stroke-linecap="round" stroke-linejoin="round"/>
<path d="M108.048 75.9698L107.227 92.6484" stroke="black" stroke-width="2" stroke-miterlimit="10" stroke-linecap="round" stroke-linejoin="round"/>
<path d="M172.308 75.9698L174.106 91.3059" stroke="black" stroke-width="2" stroke-miterlimit="10" stroke-linecap="round" stroke-linejoin="round"/>
<path d="M137.173 97.5023C137.173 98.3285 136.403 98.9997 135.478 98.9997C134.554 98.9997 133.783 98.3285 133.783 97.5023C133.783 96.6761 134.554 96.0048 135.478 96.0048C136.403 96.0048 137.173 96.6761 137.173 97.5023Z" fill="black"/>
<path d="M133.937 75.092C133.937 75.092 136.3 78.1902 136.146 80.7721" stroke="black" stroke-width="2" stroke-miterlimit="10" stroke-linecap="round" stroke-linejoin="round"/>
<path d="M146.42 75.092C146.42 75.092 144.057 78.1902 144.211 80.7721" stroke="black" stroke-width="2" stroke-miterlimit="10" stroke-linecap="round" stroke-linejoin="round"/>
<path d="M161.932 79.223C161.932 79.223 154.587 75.9699 148.936 79.223" stroke="black" stroke-width="2" stroke-miterlimit="10" stroke-linecap="round" stroke-linejoin="round"/>
<path d="M163.679 73.5429C162.343 72.9749 159.518 72.5618 155.1 71.4258C153.2 70.9611 145.7 69.0505 144.878 68.7923L145.803 65.4876C148.012 66.1072 154.124 67.8113 155.614 68.0178C158.028 68.3793 159.518 69.5153 161.984 70.2382L163.679 73.5429Z" fill="black"/>
<path d="M118.425 79.8943C118.425 79.8943 125.359 75.9699 131.42 79.8943" stroke="black" stroke-width="2" stroke-miterlimit="10" stroke-linecap="round" stroke-linejoin="round"/>
<path d="M126.746 80.2041C126.746 81.2368 125.924 82.063 124.897 82.063C123.869 82.063 123.047 81.2368 123.047 80.2041C123.047 79.1713 123.869 78.3452 124.897 78.3452C125.924 78.3968 126.746 79.223 126.746 80.2041Z" fill="black" stroke="black" stroke-width="2" stroke-miterlimit="10" stroke-linecap="round" stroke-linejoin="round"/>
<path d="M156.128 80.2041C156.128 81.2368 155.306 82.063 154.279 82.063C153.251 82.063 152.429 81.2368 152.429 80.2041C152.429 79.1713 153.251 78.3452 154.279 78.3452C155.306 78.3452 156.128 79.223 156.128 80.2041Z" fill="black" stroke="black" stroke-width="2" stroke-miterlimit="10" stroke-linecap="round" stroke-linejoin="round"/>
<path d="M115.188 74.3175L116.986 70.4447C118.887 69.0505 122.38 68.3793 124.794 68.0178C126.694 67.708 134.605 65.4876 134.605 65.4876L135.067 68.4309C132.293 70.2382 127.208 71.116 125.308 71.4258C121.301 71.9938 116.01 73.6978 115.188 74.3175Z" fill="black"/>
<path d="M129.16 110.463C141.437 115.059 151.248 110.463 151.248 110.463" stroke="black" stroke-width="2" stroke-miterlimit="10" stroke-linecap="round" stroke-linejoin="round"/>
<path d="M179.654 86.7619C175.853 88.4143 174.209 98.4834 174.209 98.4834" stroke="black" stroke-width="2" stroke-miterlimit="10" stroke-linecap="round" stroke-linejoin="round"/>
<path d="M131.78 94.0943C131.78 94.0943 127.568 98.4318 133.013 101.323" stroke="black" stroke-width="2" stroke-miterlimit="10" stroke-linecap="round" stroke-linejoin="round"/>
<path d="M143.183 97.5023C143.183 98.3285 143.954 98.9997 144.878 98.9997C145.803 98.9997 146.574 98.3285 146.574 97.5023C146.574 96.6761 145.803 96.0048 144.878 96.0048C143.954 96.0048 143.183 96.6761 143.183 97.5023Z" fill="black"/>
<path d="M148.577 94.0943C148.577 94.0943 152.789 98.4318 146.625 101.323" stroke="black" stroke-width="2" stroke-miterlimit="10" stroke-linecap="round" stroke-linejoin="round"/>
<path d="M140.204 61.6149V68.2244" stroke="black" stroke-width="2" stroke-miterlimit="10" stroke-linecap="round" stroke-linejoin="round"/>
<path d="M130.393 97.1925L124.691 115.42" stroke="black" stroke-width="2" stroke-miterlimit="10" stroke-linecap="round" stroke-linejoin="round"/>
<path d="M149.964 97.1925L155.665 115.42" stroke="black" stroke-width="2" stroke-miterlimit="10" stroke-linecap="round" stroke-linejoin="round"/>
<path d="M136.146 84.2833V87.8462C136.146 88.7757 135.786 89.6535 135.17 90.2732L133.012 92.5452" stroke="black" stroke-width="2" stroke-miterlimit="10" stroke-linecap="round" stroke-linejoin="round"/>
<path d="M138.379 115.958H143.465" stroke="black" stroke-width="2" stroke-miterlimit="10" stroke-linecap="round" stroke-linejoin="round"/>
<path d="M174.26 95.8499V101.168" stroke="black" stroke-width="2" stroke-miterlimit="10" stroke-linecap="round" stroke-linejoin="round"/>
<path d="M100.703 86.7619C104.607 88.4143 106.148 98.4834 106.148 98.4834" stroke="black" stroke-width="2" stroke-miterlimit="10" stroke-linecap="round" stroke-linejoin="round"/>
<path d="M106.148 95.8499V101.168" stroke="black" stroke-width="2" stroke-miterlimit="10" stroke-linecap="round" stroke-linejoin="round"/>
<path d="M175.904 84.2833C175.904 84.2833 182.274 66.5204 180.784 59.3946C179.294 52.2687 167.942 44.7298 167.942 44.7298C167.942 44.7298 167.531 38.0687 158.491 33.5247C149.501 28.9807 141.848 27.2767 128.955 31.1494C116.113 35.0221 111.387 38.6883 107.946 41.0636C104.504 43.4389 95.7717 56.6062 98.6482 69.5153C101.473 82.4244 103.117 83.0957 103.117 83.0957C103.117 83.0957 105.583 85.1095 106.405 86.7619L108.048 75.9699L109.333 61.6149C109.333 61.6149 102.603 49.6353 125.205 42.5611C125.205 42.5611 137.841 36.1065 165.168 46.692C165.168 46.692 174.209 52.7334 172.257 76.8477L173.438 86.1939" fill="black"/>
<path d="M175.904 84.2833C175.904 84.2833 182.274 66.5204 180.784 59.3946C179.294 52.2687 167.942 44.7298 167.942 44.7298C167.942 44.7298 167.531 38.0687 158.491 33.5247C149.501 28.9807 141.848 27.2767 128.955 31.1494C116.113 35.0221 111.387 38.6883 107.946 41.0636C104.504 43.4389 95.7717 56.6062 98.6482 69.5153C101.473 82.4244 103.117 83.0957 103.117 83.0957C103.117 83.0957 105.583 85.1095 106.405 86.7619L108.048 75.9699L109.333 61.6149C109.333 61.6149 102.603 49.6353 125.205 42.5611C125.205 42.5611 137.841 36.1065 165.168 46.692C165.168 46.692 174.209 52.7334 172.257 76.8477L173.438 86.1939" stroke="black" stroke-width="2" stroke-miterlimit="10" stroke-linecap="round" stroke-linejoin="round"/>
<path d="M108.511 110.257L107.586 106.281" stroke="black" stroke-width="2" stroke-miterlimit="10" stroke-linecap="round" stroke-linejoin="round"/>
<path d="M171.897 110.257L172.668 106.281" stroke="black" stroke-width="2" stroke-miterlimit="10" stroke-linecap="round" stroke-linejoin="round"/>
<path d="M102.141 94.0943L103.425 98.9998" stroke="black" stroke-width="2" stroke-miterlimit="10" stroke-linecap="round" stroke-linejoin="round"/>
<path d="M178.215 94.0943L176.983 98.9998" stroke="black" stroke-width="2" stroke-miterlimit="10" stroke-linecap="round" stroke-linejoin="round"/>
</g>
<defs>
<clipPath id="clip0">
<rect width="189" height="279" fill="white" transform="translate(48 6)"/>
</clipPath>
</defs>
</svg>
