<svg width="402" height="402" viewBox="0 0 402 402" fill="none" xmlns="http://www.w3.org/2000/svg">
<circle cx="201" cy="201" r="201" fill="#627493"/>
<path d="M246.213 182.211H243.557C242.377 174.245 236.477 168.049 228.806 168.049C221.135 168.049 215.234 174.245 214.054 182.211H211.399V186.931H214.054C215.234 194.897 221.135 201.093 228.806 201.093C236.477 201.093 242.377 194.897 243.557 186.931H246.213V182.211ZM224.38 183.391C223.495 183.391 222.61 182.506 222.61 181.621C222.61 180.736 223.495 179.851 224.38 179.851C225.265 179.851 226.151 180.736 226.151 181.621C226.151 182.506 225.265 183.391 224.38 183.391ZM233.526 183.391C232.641 183.391 231.756 182.506 231.756 181.621C231.756 180.736 232.641 179.851 233.526 179.851C234.411 179.851 235.297 180.736 235.297 181.621C235.297 182.506 234.411 183.391 233.526 183.391Z" fill="#E3E9F4"/>
<path d="M246.213 139.162H243.557C242.377 131.196 236.477 125 228.806 125C221.135 125 215.234 131.196 214.054 139.162H211.399V143.882H214.054C215.234 151.848 221.135 158.044 228.806 158.044C236.477 158.044 242.377 151.848 243.557 143.882H246.213V139.162ZM224.38 140.342C223.495 140.342 222.61 139.457 222.61 138.571C222.61 137.686 223.495 136.801 224.38 136.801C225.265 136.801 226.15 137.686 226.15 138.571C226.15 139.457 225.265 140.342 224.38 140.342ZM233.526 140.342C232.641 140.342 231.756 139.457 231.756 138.571C231.756 137.686 232.641 136.801 233.526 136.801C234.411 136.801 235.296 137.686 235.296 138.571C235.296 139.457 234.411 140.342 233.526 140.342Z" fill="#EE7480"/>
<path d="M290.016 182.211H287.361C286.181 174.245 280.28 168.049 272.609 168.049C264.939 168.049 259.038 174.245 257.858 182.211H255.203V186.931H257.858C259.038 194.897 264.939 201.093 272.609 201.093C280.28 201.093 286.181 194.897 287.361 186.931H290.016V182.211ZM268.184 183.391C267.299 183.391 266.414 182.506 266.414 181.621C266.414 180.736 267.299 179.851 268.184 179.851C269.069 179.851 269.954 180.736 269.954 181.621C269.954 182.506 269.069 183.391 268.184 183.391ZM277.33 183.391C276.445 183.391 275.56 182.506 275.56 181.621C275.56 180.736 276.445 179.851 277.33 179.851C278.215 179.851 279.1 180.736 279.1 181.621C279.1 182.506 278.215 183.391 277.33 183.391Z" fill="#FBDFE2"/>
<path d="M291.059 139.162H288.404C287.224 131.196 281.323 125 273.652 125C265.982 125 260.081 131.196 258.901 139.162H256.245V143.882H258.901C260.081 151.848 265.982 158.044 273.652 158.044C281.323 158.044 287.224 151.848 288.404 143.882H291.059V139.162ZM269.227 140.342C268.342 140.342 267.457 139.457 267.457 138.571C267.457 137.686 268.342 136.801 269.227 136.801C270.112 136.801 270.997 137.686 270.997 138.571C270.997 139.457 270.112 140.342 269.227 140.342ZM278.373 140.342C277.488 140.342 276.603 139.457 276.603 138.571C276.603 137.686 277.488 136.801 278.373 136.801C279.258 136.801 280.143 137.686 280.143 138.571C280.143 139.457 279.258 140.342 278.373 140.342Z" fill="white"/>
<path d="M337.814 139.162H335.159C333.978 131.196 328.078 125 320.407 125C312.736 125 306.835 131.196 305.655 139.162H303V143.882H305.655C306.835 151.848 312.736 158.044 320.407 158.044C328.078 158.044 333.978 151.848 335.159 143.882H337.814V139.162ZM315.981 140.342C315.096 140.342 314.211 139.457 314.211 138.571C314.211 137.686 315.096 136.801 315.981 136.801C316.867 136.801 317.752 137.686 317.752 138.571C317.752 139.457 316.867 140.342 315.981 140.342ZM325.127 140.342C324.242 140.342 323.357 139.457 323.357 138.571C323.357 137.686 324.242 136.801 325.127 136.801C326.013 136.801 326.898 137.686 326.898 138.571C326.898 139.457 326.013 140.342 325.127 140.342Z" fill="#E3E9F4"/>
<path d="M202.409 182.211H199.754C198.574 174.245 192.673 168.049 185.002 168.049C177.626 168.049 171.431 174.245 170.25 182.211H167.595V186.931H170.25C171.431 194.897 177.331 201.093 185.002 201.093C192.378 201.093 198.574 194.897 199.754 186.931H202.409V182.211ZM180.577 183.391C179.691 183.391 178.806 182.506 178.806 181.621C178.806 180.736 179.691 179.851 180.577 179.851C181.462 179.851 182.347 180.736 182.347 181.621C182.347 182.506 181.462 183.391 180.577 183.391ZM189.723 183.391C188.837 183.391 187.952 182.506 187.952 181.621C187.952 180.736 188.837 179.851 189.723 179.851C190.608 179.851 191.493 180.736 191.493 181.621C191.493 182.506 190.608 183.391 189.723 183.391Z" fill="#FBDFE2"/>
<path d="M201.366 139.162H198.711C197.531 131.196 191.63 125 183.959 125C176.583 125 170.388 131.196 169.207 139.162H166.552V143.882H169.207C170.388 151.848 176.288 158.044 183.959 158.044C191.335 158.044 197.531 151.848 198.711 143.882H201.366V139.162ZM179.534 140.342C178.648 140.342 177.763 139.457 177.763 138.571C177.763 137.686 178.648 136.801 179.534 136.801C180.419 136.801 181.304 137.686 181.304 138.571C181.304 139.457 180.419 140.342 179.534 140.342ZM188.68 140.342C187.794 140.342 186.909 139.457 186.909 138.571C186.909 137.686 187.794 136.801 188.68 136.801C189.565 136.801 190.45 137.686 190.45 138.571C190.45 139.457 189.565 140.342 188.68 140.342Z" fill="white"/>
<path d="M158.705 182.211H156.05C154.87 174.245 148.969 168.049 141.298 168.049C133.922 168.049 127.727 174.245 126.546 182.211H123.891V186.931H126.546C127.727 194.897 133.627 201.093 141.298 201.093C148.674 201.093 154.87 194.897 156.05 186.931H158.705V182.211ZM136.873 183.391C135.987 183.391 135.102 182.506 135.102 181.621C135.102 180.736 135.987 179.851 136.873 179.851C137.758 179.851 138.643 180.736 138.643 181.621C138.643 182.506 137.758 183.391 136.873 183.391ZM146.019 183.391C145.133 183.391 144.248 182.506 144.248 181.621C144.248 180.736 145.133 179.851 146.019 179.851C146.904 179.851 147.789 180.736 147.789 181.621C147.789 182.506 146.904 183.391 146.019 183.391Z" fill="white"/>
<path d="M111.132 139.162H108.476C107.296 131.196 101.396 125 93.7248 125C86.349 125 80.1533 131.196 78.9732 139.162H76.3179V143.882H78.9732C80.1533 151.848 86.0539 158.044 93.7248 158.044C101.101 158.044 107.296 151.848 108.476 143.882H111.132V139.162ZM89.2993 140.342C88.4142 140.342 87.5291 139.457 87.5291 138.571C87.5291 137.686 88.4142 136.801 89.2993 136.801C90.1844 136.801 91.0695 137.686 91.0695 138.571C91.0695 139.457 90.1844 140.342 89.2993 140.342ZM98.4453 140.342C97.5602 140.342 96.6751 139.457 96.6751 138.571C96.6751 137.686 97.5602 136.801 98.4453 136.801C99.3304 136.801 100.216 137.686 100.216 138.571C100.216 139.457 99.3304 140.342 98.4453 140.342Z" fill="#E3E9F4"/>
<path d="M156.519 139.162H153.864C152.684 131.196 146.783 125 139.112 125C131.737 125 125.541 131.196 124.361 139.162H121.706V143.882H124.361C125.541 151.848 131.442 158.044 139.112 158.044C146.488 158.044 152.684 151.848 153.864 143.882H156.519V139.162ZM134.687 140.342C133.802 140.342 132.917 139.457 132.917 138.571C132.917 137.686 133.802 136.801 134.687 136.801C135.572 136.801 136.457 137.686 136.457 138.571C136.457 139.457 135.572 140.342 134.687 140.342ZM143.833 140.342C142.948 140.342 142.063 139.457 142.063 138.571C142.063 137.686 142.948 136.801 143.833 136.801C144.718 136.801 145.603 137.686 145.603 138.571C145.603 139.457 144.718 140.342 143.833 140.342Z" fill="#FBDFE2"/>
<path d="M178.604 216.435H175.948C174.768 208.469 168.868 202.273 161.197 202.273C153.821 202.273 147.625 208.469 146.445 216.435H144.085V221.155H146.74C147.92 229.121 153.821 235.317 161.492 235.317C168.868 235.317 175.063 229.121 176.243 221.155H178.899V216.435H178.604ZM156.771 217.615C155.886 217.615 155.001 216.73 155.001 215.845C155.001 214.959 155.886 214.074 156.771 214.074C157.656 214.074 158.541 214.959 158.541 215.845C158.541 217.025 157.656 217.615 156.771 217.615ZM165.917 217.615C165.032 217.615 164.147 216.73 164.147 215.845C164.147 214.959 165.032 214.074 165.917 214.074C166.802 214.074 167.687 214.959 167.687 215.845C167.392 217.025 166.802 217.615 165.917 217.615Z" fill="#8CA5D2"/>
<path d="M265.048 216.435H262.393C261.213 208.469 255.312 202.273 247.641 202.273C239.97 202.273 234.07 208.469 232.89 216.435H230.529V221.155H233.185C234.365 229.121 240.265 235.317 247.936 235.317C255.607 235.317 261.508 229.121 262.688 221.155H265.343V216.435H265.048ZM243.216 217.615C242.331 217.615 241.446 216.73 241.446 215.845C241.446 214.959 242.331 214.074 243.216 214.074C244.101 214.074 244.986 214.959 244.986 215.845C244.986 217.025 244.101 217.615 243.216 217.615ZM252.362 217.615C251.477 217.615 250.592 216.73 250.592 215.845C250.592 214.959 251.477 214.074 252.362 214.074C253.247 214.074 254.132 214.959 254.132 215.845C253.837 217.025 253.247 217.615 252.362 217.615Z" fill="white"/>
<path d="M216.072 235.022C215.482 235.612 215.187 235.907 214.597 236.202C213.417 237.382 211.942 237.972 210.467 238.562L206.631 245.348L211.057 252.724L204.861 282.522L198.075 253.019L202.501 245.643L198.666 238.857C197.19 238.267 195.715 237.382 194.535 236.497C193.945 236.202 193.65 235.612 193.06 235.317L191.88 241.512L167.392 250.068V290.488C167.982 290.783 168.867 291.373 169.752 291.668V251.249L193.355 243.283L204.861 292.848L216.367 243.283L239.97 251.249V291.373C240.855 291.078 241.445 290.488 242.33 290.193V249.773L217.843 241.217L216.072 235.022Z" fill="white"/>
<path d="M149.69 243.578L132.283 249.478C132.578 250.068 132.874 250.954 133.169 251.544L151.461 245.348L152.936 237.382L150.87 236.792L149.69 243.578Z" fill="white"/>
<path d="M123.954 211.57L106.547 217.471C106.842 218.061 107.137 218.946 107.432 219.536L125.724 213.34L127.199 205.375L125.134 204.784L123.954 211.57Z" fill="white"/>
<path d="M170.746 236.98L168.723 237.397L170.213 244.621L172.236 244.204L170.746 236.98Z" fill="white"/>
<path d="M259.148 243.578L257.672 237.087L255.607 237.677L257.082 245.643L275.374 251.839C275.669 251.249 275.964 250.363 276.259 249.773L259.148 243.578Z" fill="white"/>
<path d="M286.215 211.344L284.74 204.853L282.675 205.443L284.15 213.409L302.442 219.605C302.737 219.015 303.032 218.13 303.327 217.539L286.215 211.344Z" fill="white"/>
<path d="M238.06 237.018L236.57 244.242L238.593 244.659L240.082 237.435L238.06 237.018Z" fill="white"/>
<path d="M221.678 218.795H219.023C217.843 210.829 211.942 204.633 204.271 204.633C196.601 204.633 190.7 210.829 189.52 218.795H186.865V223.515H189.52C190.7 231.481 196.601 237.677 204.271 237.677C211.942 237.677 217.843 231.481 219.023 223.515H221.678V218.795ZM199.846 219.975C198.961 219.975 198.076 219.09 198.076 218.205C198.076 217.32 198.961 216.435 199.846 216.435C200.731 216.435 201.616 217.32 201.616 218.205C201.616 219.09 200.731 219.975 199.846 219.975ZM208.992 219.975C208.107 219.975 207.222 219.09 207.222 218.205C207.222 217.32 208.107 216.435 208.992 216.435C209.877 216.435 210.762 217.32 210.762 218.205C210.762 219.09 209.877 219.975 208.992 219.975Z" fill="#FBDFE2"/>
<path fill-rule="evenodd" clip-rule="evenodd" d="M111.007 168.468V170.977L104.975 168.941L93.4691 218.506L81.9629 168.941L58.3603 176.907V217.326C57.7431 217.121 57.126 216.771 56.6089 216.479C56.3844 216.352 56.1787 216.235 56 216.146V175.727L80.4877 167.171L81.6678 160.975C81.9629 161.123 82.1841 161.344 82.4054 161.565C82.6267 161.786 82.8479 162.008 83.143 162.155C84.3231 163.04 85.7983 163.925 87.2734 164.515L91.1089 171.301L86.6834 178.677L93.4691 208.18L99.6648 178.382L95.2393 171.006L99.0747 164.22C100.55 163.63 102.025 163.04 103.205 161.86C103.795 161.565 104.09 161.27 104.68 160.68L104.68 160.68L106.451 166.876L111.007 168.468Z" fill="white"/>
<path fill-rule="evenodd" clip-rule="evenodd" d="M303.282 168.468V170.976L309.314 168.941L320.82 218.506L332.326 168.941L355.929 176.907V217.326C356.546 217.121 357.163 216.771 357.68 216.479C357.905 216.352 358.11 216.235 358.289 216.146V175.727L333.801 167.171L332.621 160.975C332.326 161.123 332.105 161.344 331.884 161.565C331.662 161.786 331.441 162.008 331.146 162.155C329.966 163.04 328.491 163.925 327.016 164.515L323.18 171.301L327.606 178.677L320.82 208.18L314.624 178.382L319.05 171.006L315.214 164.22C313.739 163.63 312.264 163.04 311.084 161.86C310.494 161.565 310.199 161.27 309.609 160.68L309.609 160.68L307.839 166.876L303.282 168.468Z" fill="white"/>
<rect x="301.317" y="216.814" width="2.1519" height="45.9072" fill="white"/>
<rect x="274.059" y="249.093" width="2.1519" height="45.9072" fill="white"/>
<rect x="132.034" y="249.093" width="2.1519" height="45.9072" fill="white"/>
<rect x="106.211" y="217.532" width="2.1519" height="45.9072" fill="white"/>
</svg>
