<svg width="36" height="36" viewBox="0 0 36 36" fill="none" xmlns="http://www.w3.org/2000/svg">
<circle cx="18" cy="18" r="17.5" fill="white" stroke="black"/>
<path d="M16.0915 23.517C16.0915 23.517 15.367 22.7385 17.4865 23.5755" stroke="black" stroke-width="0.75" stroke-linecap="round" stroke-linejoin="round"/>
<path d="M11.8436 17.7165C11.8436 17.7165 13.5581 16.3215 15.5201 18.0495" stroke="black" stroke-width="0.75" stroke-miterlimit="10" stroke-linecap="round"/>
<path d="M10.9525 15.93C10.9525 15.93 12.568 14.508 16.0825 16.101C14.9202 15.5419 13.6786 15.1654 12.4015 14.985L10.9525 15.93Z" fill="black" stroke="black" stroke-width="0.75" stroke-miterlimit="10" stroke-linecap="round"/>
<path d="M14.4355 17.613C14.4355 17.802 14.197 17.9595 13.9 17.9595C13.603 17.9595 13.36 17.802 13.36 17.613C13.36 17.424 13.603 17.271 13.9 17.271C14.197 17.271 14.4355 17.4285 14.4355 17.613Z" fill="black" stroke="black" stroke-width="0.75" stroke-miterlimit="10" stroke-linecap="round"/>
<path d="M24.1599 17.7165C24.1599 17.7165 22.4454 16.3215 20.4834 18.0495" stroke="black" stroke-width="0.75" stroke-miterlimit="10" stroke-linecap="round"/>
<path d="M23.332 15.1515C22.2055 15.3004 21.1083 15.6206 20.0785 16.101C23.593 14.508 25.2085 15.93 25.2085 15.93C25.2085 15.93 23.782 15.0795 23.332 15.1515Z" fill="black" stroke="black" stroke-width="0.75" stroke-linecap="round" stroke-linejoin="round"/>
<path d="M21.5951 17.613C21.5951 17.802 21.8336 17.9595 22.1306 17.9595C22.4276 17.9595 22.6706 17.802 22.6706 17.613C22.6706 17.424 22.4276 17.271 22.1306 17.271C21.8336 17.271 21.5951 17.4285 21.5951 17.613Z" fill="black" stroke="black" stroke-width="0.75" stroke-miterlimit="10" stroke-linecap="round"/>
<path d="M15.124 26.784H21.019" stroke="black" stroke-width="0.75" stroke-miterlimit="10" stroke-linecap="round"/>
<path d="M24.016 20.2905L24.2995 20.052" stroke="black" stroke-width="0.75" stroke-miterlimit="10" stroke-linecap="round"/>
<path d="M16.708 27.7335C17.1415 27.9232 17.6096 28.0212 18.0828 28.0212C18.5559 28.0212 19.024 27.9232 19.4575 27.7335" stroke="black" stroke-width="0.5" stroke-miterlimit="10" stroke-linecap="round"/>
<path d="M8.55844 17.3835C8.55844 17.3835 8.64394 19.251 8.72494 20.142" stroke="black" stroke-width="0.75" stroke-miterlimit="10" stroke-linecap="round"/>
<path d="M9.36854 23.8545L9.20204 22.851" stroke="black" stroke-width="0.75" stroke-miterlimit="10" stroke-linecap="round"/>
<path d="M7.3615 17.577C7.3615 17.577 8.104 17.19 8.6665 19.377" stroke="black" stroke-width="0.5" stroke-miterlimit="10" stroke-linecap="round"/>
<path d="M7.74857 19.3635C7.95279 20.0789 8.22398 20.7735 8.55857 21.438" stroke="black" stroke-width="0.5" stroke-miterlimit="10" stroke-linecap="round"/>
<path d="M27.5845 17.3835C27.5845 17.3835 27.499 19.251 27.418 20.142" stroke="black" stroke-width="0.75" stroke-miterlimit="10" stroke-linecap="round"/>
<path d="M26.7744 23.8545L26.9409 22.851" stroke="black" stroke-width="0.75" stroke-miterlimit="10" stroke-linecap="round"/>
<path d="M28.7815 17.577C28.7815 17.577 28.039 17.19 27.4765 19.377" stroke="black" stroke-width="0.5" stroke-miterlimit="10" stroke-linecap="round"/>
<path d="M28.3946 19.3635C28.1904 20.0789 27.9192 20.7735 27.5846 21.438" stroke="black" stroke-width="0.5" stroke-miterlimit="10" stroke-linecap="round"/>
<path d="M27.9896 16.7805C27.9896 16.7805 28.6016 13.734 28.3676 12.9375C28.1336 12.141 29.5556 9.94051 23.2466 5.49901C21.1856 4.05001 18.0716 4.05 18.0716 4.05C18.0716 4.05 14.9576 4.05001 12.8966 5.49901C6.58758 9.96301 8.03207 12.1365 7.77557 12.9375C7.51907 13.7385 8.15357 16.7805 8.15357 16.7805" stroke="black" stroke-width="0.75" stroke-miterlimit="10" stroke-linecap="round"/>
<path d="M16.582 23.4045C16.582 23.499 16.4605 23.5755 16.312 23.5755C16.1635 23.5755 16.0375 23.499 16.0375 23.4045C16.0375 23.31 16.159 23.238 16.312 23.238C16.465 23.238 16.582 23.3145 16.582 23.4045Z" fill="black" stroke="black" stroke-width="0.75" stroke-linecap="round" stroke-linejoin="round"/>
<path d="M20.0515 23.517C20.0515 23.517 20.776 22.7385 18.6565 23.5755" stroke="black" stroke-width="0.75" stroke-linecap="round" stroke-linejoin="round"/>
<path d="M19.5791 23.4045C19.5791 23.499 19.7006 23.5755 19.8491 23.5755C19.9976 23.5755 20.1236 23.499 20.1236 23.4045C20.1236 23.31 20.0021 23.238 19.8491 23.238C19.6961 23.238 19.5791 23.3145 19.5791 23.4045Z" fill="black" stroke="black" stroke-width="0.75" stroke-linecap="round" stroke-linejoin="round"/>
<path d="M17.1175 17.577C17.1175 17.577 17.1805 19.755 16.564 21.0915" stroke="black" stroke-width="0.5" stroke-linecap="round" stroke-linejoin="round"/>
<path d="M24.8486 7.95152C25.6084 8.71443 26.3051 9.53761 26.9321 10.413" stroke="black" stroke-width="0.5" stroke-miterlimit="10" stroke-linecap="round"/>
<path d="M25.8971 10.0395C26.4864 10.8238 26.9959 11.665 27.4181 12.5505" stroke="black" stroke-width="0.5" stroke-miterlimit="10" stroke-linecap="round"/>
<path d="M15.5201 22.14C15.4287 22.1931 15.3493 22.2646 15.287 22.3501C15.2248 22.4356 15.181 22.5331 15.1586 22.6364C15.1362 22.7397 15.1355 22.8466 15.1567 22.9502C15.1779 23.0537 15.2204 23.1518 15.2816 23.238" stroke="black" stroke-width="0.5" stroke-miterlimit="10" stroke-linecap="round"/>
<path d="M20.632 22.14C20.7234 22.1931 20.8028 22.2646 20.8651 22.3501C20.9273 22.4356 20.9711 22.5331 20.9935 22.6364C21.016 22.7397 21.0166 22.8466 20.9954 22.9502C20.9742 23.0537 20.9317 23.1518 20.8705 23.238" stroke="black" stroke-width="0.5" stroke-miterlimit="10" stroke-linecap="round"/>
<path d="M18.0715 6.48901C9.382 4.72051 9.6745 11.916 9.6745 11.916C9.31 12.6945 8.5585 17.3835 8.5585 17.3835C8.36204 16.9347 8.00375 16.5765 7.555 16.38C6.8845 16.155 6.493 17.9955 6.943 19.4445C7.393 20.8935 7.9465 24.4665 9.3685 23.8545C9.3685 23.8545 9.2695 25.2495 10.3855 27.5355C11.5015 29.8215 13.414 32.3055 18.0715 32.3055C22.729 32.3055 24.6415 29.8215 25.7575 27.5355C26.8735 25.2495 26.7745 23.8545 26.7745 23.8545C28.1965 24.4665 28.7545 20.898 29.2 19.4445C29.6455 17.991 29.2585 16.155 28.588 16.38C28.1393 16.5765 27.781 16.9347 27.5845 17.3835C27.5845 17.3835 26.833 12.6945 26.482 11.916" stroke="black" stroke-width="0.75" stroke-linecap="round" stroke-linejoin="round"/>
<path d="M24.772 7.263C23.557 6.2415 21.505 5.52598 18.0715 5.78698" stroke="black" stroke-width="0.75" stroke-miterlimit="10" stroke-linecap="round"/>
</svg>
