<svg width="30" height="31" viewBox="0 0 30 31" fill="none" xmlns="http://www.w3.org/2000/svg">
<path d="M26.25 24.25V21.75H10V24.25H26.25ZM26.25 16.75V14.25H10V16.75H26.25ZM10 9.25H26.25V6.75H10V9.25ZM5 6.75V9.25H7.5V6.75H5ZM3.75 6.75C3.75 6.41848 3.8817 6.10054 4.11612 5.86612C4.35054 5.6317 4.66848 5.5 5 5.5H7.5C7.83152 5.5 8.14946 5.6317 8.38388 5.86612C8.6183 6.10054 8.75 6.41848 8.75 6.75V9.25C8.75 9.58152 8.6183 9.89946 8.38388 10.1339C8.14946 10.3683 7.83152 10.5 7.5 10.5H5C4.66848 10.5 4.35054 10.3683 4.11612 10.1339C3.8817 9.89946 3.75 9.58152 3.75 9.25V6.75ZM5 14.25V16.75H7.5V14.25H5ZM3.75 14.25C3.75 13.9185 3.8817 13.6005 4.11612 13.3661C4.35054 13.1317 4.66848 13 5 13H7.5C7.83152 13 8.14946 13.1317 8.38388 13.3661C8.6183 13.6005 8.75 13.9185 8.75 14.25V16.75C8.75 17.0815 8.6183 17.3995 8.38388 17.6339C8.14946 17.8683 7.83152 18 7.5 18H5C4.66848 18 4.35054 17.8683 4.11612 17.6339C3.8817 17.3995 3.75 17.0815 3.75 16.75V14.25ZM5 21.75V24.25H7.5V21.75H5ZM3.75 21.75C3.75 21.4185 3.8817 21.1005 4.11612 20.8661C4.35054 20.6317 4.66848 20.5 5 20.5H7.5C7.83152 20.5 8.14946 20.6317 8.38388 20.8661C8.6183 21.1005 8.75 21.4185 8.75 21.75V24.25C8.75 24.5815 8.6183 24.8995 8.38388 25.1339C8.14946 25.3683 7.83152 25.5 7.5 25.5H5C4.66848 25.5 4.35054 25.3683 4.11612 25.1339C3.8817 24.8995 3.75 24.5815 3.75 24.25V21.75Z" fill="black"/>
</svg>
