<svg width="20" height="20" viewBox="0 0 20 20" fill="none" xmlns="http://www.w3.org/2000/svg">
<circle cx="10" cy="10" r="9.5" fill="white" stroke="black"/>
<path d="M8.20227 14.3977C8.20227 14.3977 10.2798 14.4727 11.5173 14.3977" stroke="black" stroke-width="0.75" stroke-linecap="round" stroke-linejoin="round"/>
<path d="M6.58716 9.78776C6.58716 9.78776 7.83716 8.97276 8.80966 9.78776" stroke="black" stroke-width="0.75" stroke-miterlimit="10" stroke-linecap="round"/>
<path d="M8.11716 9.62024C8.11716 9.75024 7.94216 9.85522 7.72716 9.85522C7.51216 9.85522 7.33716 9.75024 7.33716 9.62024C7.33716 9.49024 7.51216 9.42773 7.72716 9.42773C7.94216 9.42773 8.11716 9.49024 8.11716 9.62024Z" fill="black" stroke="black" stroke-width="0.75" stroke-miterlimit="10" stroke-linecap="round"/>
<path d="M13.2848 9.78776C13.2848 9.78776 12.0348 8.97276 11.0623 9.78776" stroke="black" stroke-width="0.75" stroke-miterlimit="10" stroke-linecap="round"/>
<path d="M11.7548 9.62024C11.7548 9.75024 11.9298 9.85522 12.1448 9.85522C12.3598 9.85522 12.5348 9.75024 12.5348 9.62024C12.5348 9.49024 12.3598 9.42773 12.1448 9.42773C11.9298 9.42773 11.7548 9.49024 11.7548 9.62024Z" fill="black" stroke="black" stroke-width="0.75" stroke-miterlimit="10" stroke-linecap="round"/>
<path d="M4.83468 9.54773C4.83468 9.54773 4.35468 8.75023 3.74218 9.27023C3.12968 9.79023 3.84467 11.3428 4.07467 11.8503C4.30467 12.3578 4.70967 13.6002 5.29717 13.4552C5.29717 13.4552 5.39968 13.8677 5.59968 14.5877C6.12468 16.4602 7.59968 17.3377 9.93718 17.3377" stroke="black" stroke-width="0.75" stroke-miterlimit="10" stroke-linecap="round"/>
<path d="M15.0398 9.54773C15.0398 9.54773 15.5198 8.75023 16.1298 9.27023C16.7398 9.79023 16.0273 11.3428 15.7998 11.8503C15.5723 12.3578 15.1623 13.6002 14.5773 13.4552C14.5773 13.4552 14.4748 13.8677 14.2723 14.5877C13.7473 16.4602 12.2723 17.3377 9.93726 17.3377" stroke="black" stroke-width="0.75" stroke-miterlimit="10" stroke-linecap="round"/>
<path d="M4.84467 10.2102C4.84467 10.2102 4.98216 8.21025 5.94466 7.44275" stroke="black" stroke-width="0.75" stroke-miterlimit="10" stroke-linecap="round"/>
<path d="M6.57959 8.75525L7.25959 8.31274L8.79709 8.83273" stroke="black" stroke-width="0.75" stroke-miterlimit="10" stroke-linecap="round"/>
<path d="M9.48208 12.9052C9.48208 12.9052 8.62708 12.4952 8.73208 12.7102" stroke="black" stroke-width="0.75" stroke-linecap="round" stroke-linejoin="round"/>
<path d="M8.43216 12.6477C8.43216 12.6477 8.12216 12.1027 8.71716 12.0252" stroke="black" stroke-width="0.5" stroke-linecap="round" stroke-linejoin="round"/>
<path d="M4.31458 10.6577L4.84458 11.8177" stroke="black" stroke-width="0.5" stroke-miterlimit="10" stroke-linecap="round"/>
<path d="M13.2921 8.75525L12.6121 8.31274L11.0746 8.83273" stroke="black" stroke-width="0.75" stroke-miterlimit="10" stroke-linecap="round"/>
<path d="M10.3972 12.9052C10.3972 12.9052 11.2522 12.4952 11.1472 12.7102" stroke="black" stroke-width="0.75" stroke-linecap="round" stroke-linejoin="round"/>
<path d="M11.4397 12.6477C11.4397 12.6477 11.7522 12.1027 11.1547 12.0252" stroke="black" stroke-width="0.5" stroke-linecap="round" stroke-linejoin="round"/>
<path d="M15.5572 10.6577L15.0297 11.8177" stroke="black" stroke-width="0.5" stroke-miterlimit="10" stroke-linecap="round"/>
<path d="M6.94226 10.2102C6.94226 10.2102 7.33726 10.5077 8.11726 10.2102" stroke="black" stroke-width="0.5" stroke-linecap="round" stroke-linejoin="round"/>
<path d="M12.9298 10.2102C12.9298 10.2102 12.5348 10.5077 11.7548 10.2102" stroke="black" stroke-width="0.5" stroke-linecap="round" stroke-linejoin="round"/>
<path d="M9.36718 9.49774L8.98468 11.2377" stroke="black" stroke-width="0.5" stroke-linecap="round" stroke-linejoin="round"/>
<path d="M3.98718 9.78771C3.98718 9.78771 4.12968 9.46021 4.84468 10.2177" stroke="black" stroke-width="0.5" stroke-miterlimit="10" stroke-linecap="round"/>
<path d="M15.8972 9.78771C15.8972 9.78771 15.7547 9.46021 15.0422 10.2177" stroke="black" stroke-width="0.5" stroke-miterlimit="10" stroke-linecap="round"/>
<path d="M5.06959 11.2377C5.05518 11.9834 5.13158 12.728 5.29709 13.4552" stroke="black" stroke-width="0.75" stroke-miterlimit="10"/>
<path d="M14.8023 11.2377C14.8169 11.9833 14.7414 12.7278 14.5773 13.4552" stroke="black" stroke-width="0.75" stroke-miterlimit="10"/>
<path d="M6.80225 12.6077C6.80225 12.6077 7.43975 12.9052 8.41725 12.1627" stroke="black" stroke-width="0.5" stroke-linecap="round" stroke-linejoin="round"/>
<path d="M13.0697 12.6077C13.0697 12.6077 12.4322 12.9052 11.4572 12.1627" stroke="black" stroke-width="0.5" stroke-linecap="round" stroke-linejoin="round"/>
<path d="M15.7073 9.09524C16.8423 5.09524 14.9423 4.30773 14.9423 4.30773C14.9423 4.30773 15.4623 3.97523 14.5898 3.33523C12.9098 2.08523 8.83977 1.58524 6.04977 3.66024C3.84227 5.30524 4.01727 6.81022 4.18227 7.45022C4.34727 8.09022 4.58977 9.27022 4.58977 9.27022L4.92727 9.60772C5.17727 8.44772 5.42727 7.87022 5.94477 7.45022L6.64727 6.80773C5.94477 4.69773 9.39727 4.51273 10.9448 4.62273C12.1152 4.66718 13.2873 4.59936 14.4448 4.42022L13.9448 7.45022C14.4223 7.83522 14.8598 8.78271 14.9623 9.63521C14.9448 9.63521 15.3473 9.06774 15.7073 9.09524Z" fill="black" stroke="black" stroke-width="0.75" stroke-linecap="round" stroke-linejoin="round"/>
</svg>
