<svg width="20" height="20" viewBox="0 0 20 20" fill="none" xmlns="http://www.w3.org/2000/svg">
<circle cx="10" cy="10" r="9.5" fill="white" stroke="black"/>
<path d="M5.42726 9.24817L5.31226 11.5507" stroke="black" stroke-width="0.75" stroke-linecap="round" stroke-linejoin="round"/>
<path d="M14.3572 9.24817L14.6072 11.3682" stroke="black" stroke-width="0.75" stroke-linecap="round" stroke-linejoin="round"/>
<path d="M9.47482 12.2282C9.47292 12.2574 9.46525 12.286 9.45227 12.3123C9.43929 12.3385 9.42125 12.362 9.39919 12.3813C9.37712 12.4005 9.35146 12.4153 9.32368 12.4246C9.2959 12.434 9.26656 12.4377 9.23732 12.4357C9.20833 12.4389 9.17899 12.4359 9.15121 12.427C9.12344 12.4181 9.09786 12.4034 9.07613 12.384C9.0544 12.3645 9.03703 12.3407 9.02513 12.3141C9.01323 12.2874 9.00708 12.2586 9.00708 12.2294C9.00708 12.2002 9.01323 12.1714 9.02513 12.1448C9.03703 12.1181 9.0544 12.0943 9.07613 12.0749C9.09786 12.0554 9.12344 12.0407 9.15121 12.0318C9.17899 12.0229 9.20833 12.02 9.23732 12.0232C9.29596 12.019 9.35385 12.0383 9.39835 12.0767C9.44285 12.1151 9.47034 12.1696 9.47482 12.2282Z" fill="black"/>
<path d="M9.02234 9.12317C9.19778 9.35006 9.30449 9.62249 9.32984 9.90817" stroke="black" stroke-width="0.5" stroke-linecap="round" stroke-linejoin="round"/>
<path d="M10.7623 9.12317C10.5869 9.35006 10.4802 9.62249 10.4548 9.90817" stroke="black" stroke-width="0.5" stroke-linecap="round" stroke-linejoin="round"/>
<path d="M12.9172 9.69572C12.9172 9.69572 11.8947 9.24821 11.1097 9.69572" stroke="black" stroke-width="0.75" stroke-linecap="round" stroke-linejoin="round"/>
<path d="M13.1547 8.91064C12.9672 8.83064 12.5747 8.77063 11.9622 8.61563L10.5422 8.25064L10.6722 7.79065C10.9822 7.87815 11.8297 8.11313 12.0322 8.14313C12.3338 8.2246 12.6295 8.32649 12.9172 8.44812L13.1547 8.91064Z" fill="black"/>
<path d="M6.87964 9.79067C6.87964 9.79067 7.84464 9.24817 8.68714 9.79067" stroke="black" stroke-width="0.75" stroke-linecap="round" stroke-linejoin="round"/>
<path d="M8.02734 9.83813C8.02734 9.88758 8.01268 9.93591 7.98521 9.97702C7.95774 10.0181 7.9187 10.0502 7.87302 10.0691C7.82733 10.088 7.77707 10.093 7.72857 10.0833C7.68008 10.0737 7.63553 10.0499 7.60057 10.0149C7.5656 9.97996 7.54179 9.9354 7.53215 9.8869C7.5225 9.83841 7.52745 9.78814 7.54637 9.74246C7.5653 9.69678 7.59734 9.65775 7.63845 9.63028C7.67956 9.60281 7.7279 9.58813 7.77734 9.58813C7.84365 9.58813 7.90724 9.61446 7.95412 9.66135C8.001 9.70823 8.02734 9.77183 8.02734 9.83813Z" fill="black" stroke="black" stroke-width="0.75" stroke-linecap="round" stroke-linejoin="round"/>
<path d="M12.1047 9.83813C12.1047 9.88758 12.0901 9.93591 12.0626 9.97702C12.0351 10.0181 11.9961 10.0502 11.9504 10.0691C11.9047 10.088 11.8545 10.093 11.806 10.0833C11.7575 10.0737 11.7129 10.0499 11.678 10.0149C11.643 9.97996 11.6192 9.9354 11.6095 9.8869C11.5999 9.83841 11.6048 9.78814 11.6238 9.74246C11.6427 9.69678 11.6747 9.65775 11.7158 9.63028C11.757 9.60281 11.8053 9.58813 11.8547 9.58813C11.921 9.58813 11.9846 9.61446 12.0315 9.66135C12.0784 9.70823 12.1047 9.77183 12.1047 9.83813Z" fill="black" stroke="black" stroke-width="0.75" stroke-linecap="round" stroke-linejoin="round"/>
<path d="M6.41974 9.02063L6.66974 8.48312C7.00284 8.29537 7.37161 8.17954 7.75224 8.14313C8.01474 8.10313 9.11474 7.79065 9.11474 7.79065L9.17724 8.20062C8.75404 8.4189 8.29509 8.55947 7.82224 8.61563C7.33882 8.68771 6.86717 8.82391 6.41974 9.02063Z" fill="black"/>
<path d="M8.35724 14.3007C9.3461 13.9204 10.4409 13.9204 11.4297 14.3007" stroke="black" stroke-width="0.75" stroke-linecap="round" stroke-linejoin="round"/>
<path d="M15.3796 10.7407C14.8546 10.9707 14.6296 12.3632 14.6296 12.3632" stroke="black" stroke-width="0.5" stroke-linecap="round" stroke-linejoin="round"/>
<path d="M8.72475 11.7582C8.72475 11.7582 8.13475 12.3582 8.89475 12.7582" stroke="black" stroke-width="0.5" stroke-linecap="round" stroke-linejoin="round"/>
<path d="M10.3098 12.2282C10.3116 12.2586 10.3196 12.2883 10.3334 12.3154C10.3471 12.3426 10.3663 12.3667 10.3898 12.3861C10.4132 12.4056 10.4404 12.42 10.4696 12.4285C10.4989 12.437 10.5295 12.4395 10.5598 12.4356C10.5887 12.4388 10.6181 12.4359 10.6459 12.427C10.6736 12.4181 10.6992 12.4034 10.7209 12.3839C10.7427 12.3645 10.7601 12.3407 10.7719 12.314C10.7838 12.2874 10.79 12.2585 10.79 12.2294C10.79 12.2002 10.7838 12.1714 10.7719 12.1448C10.7601 12.1181 10.7427 12.0943 10.7209 12.0748C10.6992 12.0554 10.6736 12.0407 10.6459 12.0318C10.6181 12.0229 10.5887 12.0199 10.5598 12.0231C10.5297 12.0193 10.4992 12.0217 10.4702 12.03C10.4411 12.0384 10.414 12.0526 10.3906 12.0718C10.3672 12.091 10.348 12.1148 10.3341 12.1416C10.3202 12.1685 10.3119 12.198 10.3098 12.2282Z" fill="black"/>
<path d="M11.0622 11.7582C11.0622 11.7582 11.6497 12.3582 10.7872 12.7582" stroke="black" stroke-width="0.5" stroke-linecap="round" stroke-linejoin="round"/>
<path d="M9.89233 7.26562V8.18063" stroke="black" stroke-width="0.5" stroke-linecap="round" stroke-linejoin="round"/>
<path d="M8.52975 12.1807L7.74225 14.7032" stroke="black" stroke-width="0.5" stroke-linecap="round" stroke-linejoin="round"/>
<path d="M11.2546 12.1807L12.0421 14.7032" stroke="black" stroke-width="0.5" stroke-linecap="round" stroke-linejoin="round"/>
<path d="M9.33215 10.3956V10.8956C9.33109 11.0211 9.2829 11.1415 9.19715 11.2331L8.89465 11.5481" stroke="black" stroke-width="0.5" stroke-linecap="round" stroke-linejoin="round"/>
<path d="M9.59973 14.6406H10.3097" stroke="black" stroke-width="0.5" stroke-linecap="round" stroke-linejoin="round"/>
<path d="M14.6273 11.9957V12.7307" stroke="black" stroke-width="0.5" stroke-linecap="round" stroke-linejoin="round"/>
<path d="M4.40466 10.7407C4.94716 10.9707 5.15466 12.3632 5.15466 12.3632" stroke="black" stroke-width="0.5" stroke-linecap="round" stroke-linejoin="round"/>
<path d="M5.15735 11.9957V12.7307" stroke="black" stroke-width="0.5" stroke-linecap="round" stroke-linejoin="round"/>
<path d="M9.89223 17.4057C9.89223 17.4057 6.97723 17.6157 6.02223 15.7457C5.78468 15.1821 5.60541 14.5957 5.48723 13.9957C5.09973 14.0857 4.80223 13.6382 4.77223 13.3682C4.74223 13.0982 4.29473 12.5357 3.99723 11.9382C3.69973 11.3407 3.54973 10.1507 4.26473 10.1207C4.97973 10.0907 5.29723 10.9782 5.29723 10.9782" stroke="black" stroke-width="0.75" stroke-linecap="round" stroke-linejoin="round"/>
<path d="M9.89233 17.4057C9.89233 17.4057 12.8073 17.6157 13.7623 15.7457C13.9971 15.1811 14.1763 14.595 14.2973 13.9957C14.6848 14.0857 14.9823 13.6382 15.0123 13.3682C15.0423 13.0982 15.4898 12.5357 15.7873 11.9382C16.0848 11.3407 16.2348 10.1507 15.5198 10.1207C14.8048 10.0907 14.5673 10.8957 14.5673 10.8957" stroke="black" stroke-width="0.75" stroke-linecap="round" stroke-linejoin="round"/>
<path d="M14.8547 10.3957C14.8547 10.3957 15.7397 7.93566 15.5322 6.95316C15.3247 5.97066 13.7422 4.92566 13.7422 4.92566C13.7422 4.92566 13.6847 4.00318 12.4322 3.37568C11.1797 2.74818 10.1147 2.51066 8.32723 3.04816C6.53973 3.58566 5.87973 4.08816 5.40723 4.42066C4.93473 4.75316 3.71973 6.57068 4.11473 8.35318C4.50973 10.1357 4.73223 10.2307 4.73223 10.2307C4.91154 10.3706 5.06618 10.5396 5.18973 10.7307L5.42723 9.23066L5.60473 7.24817C5.60473 7.24817 4.67223 5.59316 7.81223 4.61066C7.81223 4.61066 9.56223 3.71567 13.3697 5.18317C13.3697 5.18317 14.6197 6.01568 14.3697 9.35068L14.5372 10.6457" fill="black"/>
<path d="M14.8547 10.3957C14.8547 10.3957 15.7397 7.93566 15.5322 6.95316C15.3247 5.97066 13.7422 4.92566 13.7422 4.92566C13.7422 4.92566 13.6847 4.00318 12.4322 3.37568C11.1797 2.74818 10.1147 2.51066 8.32723 3.04816C6.53973 3.58566 5.87973 4.08816 5.40723 4.42066C4.93473 4.75316 3.71973 6.57068 4.11473 8.35318C4.50973 10.1357 4.73223 10.2307 4.73223 10.2307C4.91154 10.3706 5.06618 10.5396 5.18973 10.7307L5.42723 9.23066L5.60473 7.24817C5.60473 7.24817 4.67223 5.59316 7.81223 4.61066C7.81223 4.61066 9.56223 3.71567 13.3697 5.18317C13.3697 5.18317 14.6197 6.01568 14.3697 9.35068L14.5372 10.6457" stroke="black" stroke-width="0.75" stroke-linecap="round" stroke-linejoin="round"/>
<path d="M5.48724 13.9882L5.36224 13.4407" stroke="black" stroke-width="0.75" stroke-linecap="round" stroke-linejoin="round"/>
<path d="M14.2972 13.9882L14.4047 13.4407" stroke="black" stroke-width="0.75" stroke-linecap="round" stroke-linejoin="round"/>
<path d="M4.60474 11.7582L4.77974 12.4357" stroke="black" stroke-width="0.5" stroke-linecap="round" stroke-linejoin="round"/>
<path d="M15.1796 11.7582L15.0046 12.4357" stroke="black" stroke-width="0.5" stroke-linecap="round" stroke-linejoin="round"/>
</svg>
