<svg width="80" height="80" viewBox="0 0 80 80" fill="none" xmlns="http://www.w3.org/2000/svg">
<circle cx="40" cy="40" r="39.5" fill="white" stroke="black"/>
<path d="M39.7379 68.9989C48.2179 68.9989 50.9579 64.5689 52.3079 61.4989C53.6579 58.4289 55.8779 52.0389 55.8779 52.0389C58.0879 53.3889 58.4579 51.0389 59.8079 48.3489C61.1579 45.6589 61.0379 42.3489 61.5279 40.7289C62.0179 39.1089 63.3779 36.0489 61.5279 35.1889C60.953 34.9758 60.3265 34.944 59.7329 35.0977C59.1393 35.2515 58.6071 35.5834 58.2079 36.0489C59.2774 32.2732 59.2774 28.2746 58.2079 24.4989C54.4179 10.9789 39.7379 11.2189 39.7379 11.2189C39.7379 11.2189 23.6379 10.7089 21.2579 24.4989C20.6017 28.321 20.6017 32.2269 21.2579 36.0489C20.8587 35.5834 20.3265 35.2515 19.7329 35.0977C19.1393 34.944 18.5129 34.9758 17.9379 35.1889C16.0979 36.0489 17.4479 39.1289 17.9379 40.7289C18.4279 42.3289 18.3079 45.6389 19.6579 48.3489C21.0079 51.0589 21.3879 53.3489 23.5979 52.0389C23.5979 52.0389 25.8079 58.4289 27.1579 61.4989C28.5079 64.5689 31.2579 68.9989 39.7379 68.9989Z" stroke="black" stroke-width="0.75" stroke-linejoin="round"/>
<path d="M21.2579 36.0489L22.1179 44.4089" stroke="black" stroke-width="0.75" stroke-miterlimit="10"/>
<path d="M26.9178 38.5089C26.9178 38.5089 30.5978 35.4389 33.6778 38.5089" stroke="black" stroke-width="0.75" stroke-miterlimit="10"/>
<path d="M31.0379 38.8589C31.5073 38.8589 31.8879 38.4783 31.8879 38.0089C31.8879 37.5395 31.5073 37.1589 31.0379 37.1589C30.5684 37.1589 30.1879 37.5395 30.1879 38.0089C30.1879 38.4783 30.5684 38.8589 31.0379 38.8589Z" fill="black" stroke="black" stroke-width="0.75" stroke-miterlimit="10"/>
<path d="M26.2679 32.1489L29.1079 30.8589L34.1079 32.1489C31.5346 31.5025 28.8413 31.5025 26.2679 32.1489Z" fill="black" stroke="black" stroke-width="0.75" stroke-miterlimit="10"/>
<path d="M52.5579 38.5089C52.5579 38.5089 48.8679 35.4389 45.7979 38.5089" stroke="black" stroke-width="0.75" stroke-miterlimit="10"/>
<path d="M48.4379 38.8589C48.9073 38.8589 49.2879 38.4783 49.2879 38.0089C49.2879 37.5395 48.9073 37.1589 48.4379 37.1589C47.9684 37.1589 47.5879 37.5395 47.5879 38.0089C47.5879 38.4783 47.9684 38.8589 48.4379 38.8589Z" fill="black" stroke="black" stroke-width="0.75" stroke-miterlimit="10"/>
<path d="M53.1978 32.1489L50.4178 30.8589L45.4178 32.1489C47.972 31.5113 50.6437 31.5113 53.1978 32.1489Z" fill="black" stroke="black" stroke-width="0.75" stroke-miterlimit="10"/>
<path d="M36.8579 50.5189C37.2003 50.5189 37.4779 50.2413 37.4779 49.8989C37.4779 49.5565 37.2003 49.2789 36.8579 49.2789C36.5155 49.2789 36.2379 49.5565 36.2379 49.8989C36.2379 50.2413 36.5155 50.5189 36.8579 50.5189Z" fill="black" stroke="black" stroke-width="0.75" stroke-miterlimit="10"/>
<path d="M42.6079 50.5189C42.9503 50.5189 43.2279 50.2413 43.2279 49.8989C43.2279 49.5565 42.9503 49.2789 42.6079 49.2789C42.2655 49.2789 41.9879 49.5565 41.9879 49.8989C41.9879 50.2413 42.2655 50.5189 42.6079 50.5189Z" fill="black" stroke="black" stroke-width="0.75" stroke-miterlimit="10"/>
<path d="M37.1779 49.3689C37.1779 49.3689 38.0879 49.9289 39.0079 50.5189C39.9279 51.1089 41.2579 50.3689 42.0079 49.6189" stroke="black" stroke-width="0.75" stroke-miterlimit="10"/>
<path d="M18.8979 37.1589C18.8979 37.1589 20.898 37.2489 21.688 40.2289" stroke="black" stroke-width="0.5" stroke-linecap="round" stroke-linejoin="round"/>
<path d="M20.1678 44.0989L22.3078 48.3789" stroke="black" stroke-width="0.5" stroke-linecap="round" stroke-linejoin="round"/>
<path d="M23.5978 52.0389L23.0378 49.8989" stroke="black" stroke-width="0.75" stroke-miterlimit="10"/>
<path d="M58.2079 36.0489L57.3479 44.4089" stroke="black" stroke-width="0.75" stroke-miterlimit="10"/>
<path d="M60.578 37.1589C60.578 37.1589 58.578 37.2489 57.778 40.2289" stroke="black" stroke-width="0.5" stroke-linecap="round" stroke-linejoin="round"/>
<path d="M59.3078 44.0989L57.1678 48.3789" stroke="black" stroke-width="0.5" stroke-linecap="round" stroke-linejoin="round"/>
<path d="M55.8779 52.0389L56.4279 49.8989" stroke="black" stroke-width="0.75" stroke-miterlimit="10"/>
<path d="M38.1179 34.5789C38.1179 34.5789 37.1179 43.9189 36.8479 45.8889" stroke="black" stroke-width="0.5" stroke-linecap="round" stroke-linejoin="round"/>
<path d="M32.9679 58.3389C37.4582 57.6485 42.0276 57.6485 46.5179 58.3389" stroke="black" stroke-width="0.75" stroke-miterlimit="10"/>
<path d="M36.1578 59.6289C38.4982 60.3638 41.0075 60.3638 43.3478 59.6289" stroke="black" stroke-width="0.5" stroke-linecap="round" stroke-linejoin="round"/>
<path d="M39.7379 56.1189V56.9489" stroke="black" stroke-width="0.75" stroke-miterlimit="10"/>
<path d="M21.2578 36.0589C21.2777 32.1849 21.6121 28.3188 22.2578 24.4989C24.4778 11.5789 37.6278 10.9989 39.4778 11.2189C15.5678 8.32891 19.4778 35.0089 19.4778 35.0089C20.1617 35.1758 20.781 35.5411 21.2578 36.0589Z" fill="black" stroke="black" stroke-width="0.75" stroke-miterlimit="10"/>
<path d="M58.2079 36.0589C58.1853 32.185 57.8509 28.3192 57.2079 24.4989C54.9479 11.5789 41.7979 11.0289 39.9379 11.2189C65.5379 8.65891 59.9379 35.0089 59.9379 35.0089C59.272 35.1847 58.6712 35.5494 58.2079 36.0589Z" fill="black" stroke="black" stroke-width="0.75" stroke-miterlimit="10"/>
</svg>
