<svg width="30" height="30" viewBox="0 0 30 30" fill="none" xmlns="http://www.w3.org/2000/svg">
<path d="M23.75 3.75H6.25C5.58696 3.75 4.95107 4.01339 4.48223 4.48223C4.01339 4.95107 3.75 5.58696 3.75 6.25V23.75C3.75 24.413 4.01339 25.0489 4.48223 25.5178C4.95107 25.9866 5.58696 26.25 6.25 26.25H23.75C24.413 26.25 25.0489 25.9866 25.5178 25.5178C25.9866 25.0489 26.25 24.413 26.25 23.75V6.25C26.25 5.58696 25.9866 4.95107 25.5178 4.48223C25.0489 4.01339 24.413 3.75 23.75 3.75ZM23.75 23.75H6.25V6.25H23.75V23.75ZM21.25 10.5L16.75 15L21.25 19.5L19.5 21.25L15 16.75L10.5 21.25L8.75 19.5L13.25 15L8.75 10.5L10.5 8.75L15 13.25L19.5 8.75L21.25 10.5Z" fill="white"/>
</svg>
